<svg width="34" height="32" viewBox="0 0 34 32" fill="none" xmlns="http://www.w3.org/2000/svg">
<path d="M32.35 25.5755C33.3224 23.8465 33.8463 21.9014 33.8737 19.9179C33.9011 17.9343 33.4313 15.9755 32.5071 14.2203C31.5828 12.465 30.2337 10.9692 28.5827 9.86947C26.9318 8.7697 25.0316 8.10099 23.0558 7.92438C22.462 6.40744 21.5624 5.02889 20.413 3.87451C19.2636 2.72012 17.889 1.81459 16.3747 1.21423C14.8603 0.613865 13.2386 0.331523 11.6105 0.384761C9.9823 0.438 8.38252 0.825681 6.91061 1.52369C5.43871 2.2217 4.12618 3.2151 3.05465 4.44211C1.98313 5.66912 1.17553 7.10348 0.68211 8.65598C0.188684 10.2085 0.0199812 11.8459 0.186494 13.4664C0.353007 15.0869 0.851175 16.6558 1.65001 18.0755L0.612977 21.7056C0.536427 21.9735 0.532909 22.257 0.602789 22.5268C0.672668 22.7965 0.813402 23.0426 1.01041 23.2397C1.20741 23.4367 1.45352 23.5775 1.72324 23.6474C1.99295 23.7173 2.27646 23.7139 2.54438 23.6373L6.1747 22.6002C7.64014 23.4248 9.26428 23.9281 10.9392 24.0767C11.5589 25.659 12.5108 27.0899 13.7307 28.273C14.9506 29.456 16.41 30.3636 18.0105 30.9345C19.6111 31.5054 21.3154 31.7264 23.0086 31.5824C24.7018 31.4385 26.3444 30.933 27.8256 30.1002L31.4559 31.1373C31.7239 31.2139 32.0074 31.2174 32.2771 31.1475C32.5468 31.0776 32.7929 30.9368 32.9899 30.7398C33.187 30.5428 33.3277 30.2967 33.3976 30.0269C33.4674 29.7572 33.4639 29.4737 33.3874 29.2058L32.35 25.5755ZM6.25813 21.3013C6.20011 21.3013 6.14236 21.3094 6.08657 21.3253L2.2011 22.4355C2.1475 22.4508 2.09078 22.4515 2.03681 22.4376C1.98284 22.4236 1.93359 22.3954 1.89417 22.356C1.85475 22.3166 1.82659 22.2673 1.81262 22.2134C1.79864 22.1594 1.79936 22.1027 1.8147 22.0491L2.9247 18.1636C2.9481 18.0817 2.95453 17.9959 2.9436 17.9115C2.93266 17.827 2.90459 17.7457 2.8611 17.6725C1.5412 15.4472 1.07905 12.8166 1.56143 10.2746C2.04381 7.73264 3.43753 5.4542 5.4809 3.86711C7.52427 2.28002 10.0767 1.49344 12.659 1.65507C15.2413 1.8167 17.6757 2.91543 19.5052 4.74494C21.3347 6.57446 22.4335 9.0089 22.5951 11.5912C22.7567 14.1734 21.9702 16.7259 20.3831 18.7693C18.796 20.8126 16.5175 22.2064 13.9756 22.6887C11.4336 23.1711 8.80299 22.709 6.57766 21.3891C6.481 21.3316 6.3706 21.3012 6.25813 21.3013ZM32.1061 29.8559C32.067 29.8958 32.0178 29.9243 31.9637 29.9384C31.9096 29.9524 31.8528 29.9514 31.7992 29.9355L27.9138 28.8255C27.8319 28.8021 27.7461 28.7957 27.6616 28.8066C27.5772 28.8176 27.4959 28.8457 27.4227 28.8892C26.1361 29.6518 24.7032 30.1344 23.2174 30.3054C21.7317 30.4763 20.2265 30.3319 18.8004 29.8815C17.3743 29.4311 16.0592 28.6849 14.9412 27.6916C13.8231 26.6983 12.9272 25.4802 12.312 24.117C14.1017 24.0705 15.8576 23.6198 17.4484 22.7987C19.0393 21.9775 20.4238 20.8073 21.4984 19.3754C22.573 17.9436 23.3099 16.2872 23.6539 14.5304C23.9979 12.7735 23.9401 10.9615 23.4849 9.23016C25.2171 9.47498 26.8622 10.1437 28.274 11.1769C29.6858 12.2101 30.8207 13.5759 31.578 15.153C32.3352 16.7302 32.6914 18.4699 32.6149 20.2177C32.5384 21.9655 32.0315 23.6674 31.1394 25.1723C31.0958 25.2456 31.0677 25.3269 31.0567 25.4114C31.0458 25.4959 31.0522 25.5817 31.0756 25.6636L32.1856 29.5492C32.2016 29.6027 32.2026 29.6596 32.1886 29.7137C32.1746 29.7677 32.1461 29.8169 32.1061 29.8559Z" fill="black"/>
</svg>
