<svg width="69" height="69" viewBox="0 0 69 69" fill="none" xmlns="http://www.w3.org/2000/svg">
<path d="M32.3438 39.082H25.0664C24.9234 39.082 24.7863 39.1388 24.6852 39.2399C24.5841 39.341 24.5273 39.4781 24.5273 39.6211V42.8555C24.5273 42.9984 24.5841 43.1356 24.6852 43.2366C24.7863 43.3377 24.9234 43.3945 25.0664 43.3945H32.3438V50.6719C32.3438 50.8148 32.4005 50.952 32.5016 51.0531C32.6027 51.1541 32.7398 51.2109 32.8828 51.2109H36.1172C36.2602 51.2109 36.3973 51.1541 36.4984 51.0531C36.5995 50.952 36.6562 50.8148 36.6562 50.6719V43.3945H43.9336C44.0766 43.3945 44.2137 43.3377 44.3148 43.2366C44.4159 43.1356 44.4727 42.9984 44.4727 42.8555V39.6211C44.4727 39.4781 44.4159 39.341 44.3148 39.2399C44.2137 39.1388 44.0766 39.082 43.9336 39.082H36.6562V31.8047C36.6562 31.6617 36.5995 31.5246 36.4984 31.4235C36.3973 31.3224 36.2602 31.2656 36.1172 31.2656H32.8828C32.7398 31.2656 32.6027 31.3224 32.5016 31.4235C32.4005 31.5246 32.3438 31.6617 32.3438 31.8047V39.082ZM57.5853 19.4534C57.9896 19.8577 58.2188 20.4035 58.2188 20.9763V62.5312C58.2188 63.7239 57.2552 64.6875 56.0625 64.6875H12.9375C11.7448 64.6875 10.7812 63.7239 10.7812 62.5312V6.46875C10.7812 5.27607 11.7448 4.3125 12.9375 4.3125H41.555C42.1277 4.3125 42.6803 4.5416 43.0846 4.9459L57.5853 19.4534V19.4534ZM53.2459 21.9668L40.5645 9.28535V21.9668H53.2459Z" fill="#FFAC01"/>
</svg>
