<svg width="242" height="81" viewBox="0 0 242 81" fill="none" xmlns="http://www.w3.org/2000/svg">
<rect width="242" height="81" fill="#FCFCFC"/>
<path d="M89.0938 37.2969C88.4349 35.7374 87.4798 34.3206 86.2812 33.125C85.0856 31.9265 83.6688 30.9713 82.1094 30.3125C80.4893 29.627 78.7725 29.2812 77 29.2812C75.2275 29.2812 73.5107 29.627 71.8906 30.3125C70.3312 30.9713 68.9144 31.9265 67.7188 33.125C66.5202 34.3206 65.5651 35.7374 64.9062 37.2969C64.2207 38.917 63.875 40.6338 63.875 42.4062C63.875 46.2939 65.583 49.9561 68.5596 52.458L68.6094 52.499C68.7793 52.6396 68.9932 52.7188 69.2129 52.7188H84.79C85.0098 52.7188 85.2236 52.6396 85.3936 52.499L85.4434 52.458C88.417 49.9561 90.125 46.2939 90.125 42.4062C90.125 40.6338 89.7764 38.917 89.0938 37.2969ZM76.1211 32.7969C76.1211 32.668 76.2266 32.5625 76.3555 32.5625H77.6445C77.7734 32.5625 77.8789 32.668 77.8789 32.7969V35.1406C77.8789 35.2695 77.7734 35.375 77.6445 35.375H76.3555C76.2266 35.375 76.1211 35.2695 76.1211 35.1406V32.7969ZM69.9102 43.0508C69.9102 43.1797 69.8047 43.2852 69.6758 43.2852H67.332C67.2031 43.2852 67.0977 43.1797 67.0977 43.0508V41.7617C67.0977 41.6328 67.2031 41.5273 67.332 41.5273H69.6758C69.8047 41.5273 69.9102 41.6328 69.9102 41.7617V43.0508ZM72.5674 37.0596L71.6562 37.9707C71.6122 38.0143 71.5527 38.0388 71.4907 38.0388C71.4287 38.0388 71.3692 38.0143 71.3252 37.9707L69.667 36.3125C69.6234 36.2684 69.5989 36.209 69.5989 36.147C69.5989 36.085 69.6234 36.0255 69.667 35.9814L70.5781 35.0703C70.6689 34.9795 70.8184 34.9795 70.9092 35.0703L72.5674 36.7285C72.6582 36.8193 72.6582 36.9688 72.5674 37.0596ZM81.0957 39.5088L78.6201 41.9844C78.7666 42.5322 78.626 43.1387 78.1953 43.5693C78.0431 43.7219 77.8622 43.8429 77.6632 43.9255C77.4641 44.008 77.2507 44.0505 77.0352 44.0505C76.8196 44.0505 76.6062 44.008 76.4072 43.9255C76.2081 43.8429 76.0273 43.7219 75.875 43.5693C75.7225 43.4171 75.6014 43.2362 75.5189 43.0372C75.4363 42.8381 75.3938 42.6247 75.3938 42.4092C75.3938 42.1937 75.4363 41.9803 75.5189 41.7812C75.6014 41.5821 75.7225 41.4013 75.875 41.249C76.0784 41.045 76.3321 40.8983 76.6104 40.8237C76.8887 40.7491 77.1818 40.7493 77.46 40.8242L79.9355 38.3486C80.0264 38.2578 80.1758 38.2578 80.2666 38.3486L81.0957 39.1777C81.1865 39.2686 81.1865 39.415 81.0957 39.5088ZM82.3555 37.9736L81.4443 37.0625C81.4007 37.0185 81.3762 36.959 81.3762 36.897C81.3762 36.835 81.4007 36.7755 81.4443 36.7314L83.1025 35.0732C83.1934 34.9824 83.3428 34.9824 83.4336 35.0732L84.3447 35.9844C84.4355 36.0752 84.4355 36.2246 84.3447 36.3154L82.6865 37.9736C82.6425 38.0173 82.583 38.0417 82.521 38.0417C82.459 38.0417 82.3995 38.0173 82.3555 37.9736ZM86.7852 43.0508C86.7852 43.1797 86.6797 43.2852 86.5508 43.2852H84.207C84.0781 43.2852 83.9727 43.1797 83.9727 43.0508V41.7617C83.9727 41.6328 84.0781 41.5273 84.207 41.5273H86.5508C86.6797 41.5273 86.7852 41.6328 86.7852 41.7617V43.0508Z" fill="#064789"/>
<path d="M106.116 36.242C107.18 36.242 108.099 36.4427 108.874 36.844C109.658 37.236 110.255 37.8007 110.666 38.538C111.086 39.2753 111.296 40.1433 111.296 41.142C111.296 42.1407 111.086 43.0087 110.666 43.746C110.255 44.474 109.658 45.034 108.874 45.426C108.099 45.8087 107.18 46 106.116 46H103.078V36.242H106.116ZM106.116 44.95C107.376 44.95 108.337 44.6187 109 43.956C109.663 43.284 109.994 42.346 109.994 41.142C109.994 39.9287 109.658 38.9813 108.986 38.3C108.323 37.6187 107.367 37.278 106.116 37.278H104.352V44.95H106.116ZM112.5 42.136C112.5 41.352 112.659 40.666 112.976 40.078C113.294 39.4807 113.728 39.0187 114.278 38.692C114.838 38.3653 115.459 38.202 116.14 38.202C116.812 38.202 117.396 38.3467 117.89 38.636C118.385 38.9253 118.754 39.2893 118.996 39.728V38.328H120.284V46H118.996V44.572C118.744 45.02 118.366 45.3933 117.862 45.692C117.368 45.9813 116.789 46.126 116.126 46.126C115.445 46.126 114.829 45.958 114.278 45.622C113.728 45.286 113.294 44.8147 112.976 44.208C112.659 43.6013 112.5 42.9107 112.5 42.136ZM118.996 42.15C118.996 41.5713 118.88 41.0673 118.646 40.638C118.413 40.2087 118.096 39.882 117.694 39.658C117.302 39.4247 116.868 39.308 116.392 39.308C115.916 39.308 115.482 39.42 115.09 39.644C114.698 39.868 114.386 40.1947 114.152 40.624C113.919 41.0533 113.802 41.5573 113.802 42.136C113.802 42.724 113.919 43.2373 114.152 43.676C114.386 44.1053 114.698 44.4367 115.09 44.67C115.482 44.894 115.916 45.006 116.392 45.006C116.868 45.006 117.302 44.894 117.694 44.67C118.096 44.4367 118.413 44.1053 118.646 43.676C118.88 43.2373 118.996 42.7287 118.996 42.15ZM125.153 46.126C124.565 46.126 124.038 46.028 123.571 45.832C123.105 45.6267 122.736 45.3467 122.465 44.992C122.195 44.628 122.045 44.2127 122.017 43.746H123.333C123.371 44.1287 123.548 44.4413 123.865 44.684C124.192 44.9267 124.617 45.048 125.139 45.048C125.625 45.048 126.007 44.9407 126.287 44.726C126.567 44.5113 126.707 44.2407 126.707 43.914C126.707 43.578 126.558 43.3307 126.259 43.172C125.961 43.004 125.499 42.8407 124.873 42.682C124.304 42.5327 123.837 42.3833 123.473 42.234C123.119 42.0753 122.811 41.8467 122.549 41.548C122.297 41.24 122.171 40.8387 122.171 40.344C122.171 39.952 122.288 39.5927 122.521 39.266C122.755 38.9393 123.086 38.6827 123.515 38.496C123.945 38.3 124.435 38.202 124.985 38.202C125.835 38.202 126.521 38.4167 127.043 38.846C127.566 39.2753 127.846 39.8633 127.883 40.61H126.609C126.581 40.2087 126.418 39.8867 126.119 39.644C125.83 39.4013 125.438 39.28 124.943 39.28C124.486 39.28 124.122 39.378 123.851 39.574C123.581 39.77 123.445 40.0267 123.445 40.344C123.445 40.596 123.525 40.806 123.683 40.974C123.851 41.1327 124.057 41.2633 124.299 41.366C124.551 41.4593 124.897 41.5667 125.335 41.688C125.886 41.8373 126.334 41.9867 126.679 42.136C127.025 42.276 127.319 42.4907 127.561 42.78C127.813 43.0693 127.944 43.4473 127.953 43.914C127.953 44.334 127.837 44.712 127.603 45.048C127.37 45.384 127.039 45.65 126.609 45.846C126.189 46.0327 125.704 46.126 125.153 46.126ZM133.56 38.188C134.138 38.188 134.661 38.314 135.128 38.566C135.594 38.8087 135.958 39.1773 136.22 39.672C136.49 40.1667 136.626 40.7687 136.626 41.478V46H135.366V41.66C135.366 40.8947 135.174 40.3113 134.792 39.91C134.409 39.4993 133.886 39.294 133.224 39.294C132.552 39.294 132.015 39.504 131.614 39.924C131.222 40.344 131.026 40.9553 131.026 41.758V46H129.752V35.64H131.026V39.42C131.278 39.028 131.623 38.7247 132.062 38.51C132.51 38.2953 133.009 38.188 133.56 38.188ZM139.981 39.756C140.242 39.2987 140.625 38.9253 141.129 38.636C141.633 38.3467 142.207 38.202 142.851 38.202C143.542 38.202 144.162 38.3653 144.713 38.692C145.264 39.0187 145.698 39.4807 146.015 40.078C146.332 40.666 146.491 41.352 146.491 42.136C146.491 42.9107 146.332 43.6013 146.015 44.208C145.698 44.8147 145.259 45.286 144.699 45.622C144.148 45.958 143.532 46.126 142.851 46.126C142.188 46.126 141.605 45.9813 141.101 45.692C140.606 45.4027 140.233 45.034 139.981 44.586V46H138.707V35.64H139.981V39.756ZM145.189 42.136C145.189 41.5573 145.072 41.0533 144.839 40.624C144.606 40.1947 144.288 39.868 143.887 39.644C143.495 39.42 143.061 39.308 142.585 39.308C142.118 39.308 141.684 39.4247 141.283 39.658C140.891 39.882 140.574 40.2133 140.331 40.652C140.098 41.0813 139.981 41.5807 139.981 42.15C139.981 42.7287 140.098 43.2373 140.331 43.676C140.574 44.1053 140.891 44.4367 141.283 44.67C141.684 44.894 142.118 45.006 142.585 45.006C143.061 45.006 143.495 44.894 143.887 44.67C144.288 44.4367 144.606 44.1053 144.839 43.676C145.072 43.2373 145.189 42.724 145.189 42.136ZM151.514 46.126C150.795 46.126 150.142 45.9627 149.554 45.636C148.975 45.3093 148.518 44.8473 148.182 44.25C147.855 43.6433 147.692 42.9433 147.692 42.15C147.692 41.366 147.86 40.6753 148.196 40.078C148.541 39.4713 149.008 39.0093 149.596 38.692C150.184 38.3653 150.842 38.202 151.57 38.202C152.298 38.202 152.956 38.3653 153.544 38.692C154.132 39.0093 154.594 39.4667 154.93 40.064C155.275 40.6613 155.448 41.3567 155.448 42.15C155.448 42.9433 155.271 43.6433 154.916 44.25C154.571 44.8473 154.099 45.3093 153.502 45.636C152.905 45.9627 152.242 46.126 151.514 46.126ZM151.514 45.006C151.971 45.006 152.401 44.8987 152.802 44.684C153.203 44.4693 153.525 44.1473 153.768 43.718C154.02 43.2887 154.146 42.766 154.146 42.15C154.146 41.534 154.025 41.0113 153.782 40.582C153.539 40.1527 153.222 39.8353 152.83 39.63C152.438 39.4153 152.013 39.308 151.556 39.308C151.089 39.308 150.66 39.4153 150.268 39.63C149.885 39.8353 149.577 40.1527 149.344 40.582C149.111 41.0113 148.994 41.534 148.994 42.15C148.994 42.7753 149.106 43.3027 149.33 43.732C149.563 44.1613 149.871 44.4833 150.254 44.698C150.637 44.9033 151.057 45.006 151.514 45.006ZM156.647 42.136C156.647 41.352 156.806 40.666 157.123 40.078C157.44 39.4807 157.874 39.0187 158.425 38.692C158.985 38.3653 159.606 38.202 160.287 38.202C160.959 38.202 161.542 38.3467 162.037 38.636C162.532 38.9253 162.9 39.2893 163.143 39.728V38.328H164.431V46H163.143V44.572C162.891 45.02 162.513 45.3933 162.009 45.692C161.514 45.9813 160.936 46.126 160.273 46.126C159.592 46.126 158.976 45.958 158.425 45.622C157.874 45.286 157.44 44.8147 157.123 44.208C156.806 43.6013 156.647 42.9107 156.647 42.136ZM163.143 42.15C163.143 41.5713 163.026 41.0673 162.793 40.638C162.56 40.2087 162.242 39.882 161.841 39.658C161.449 39.4247 161.015 39.308 160.539 39.308C160.063 39.308 159.629 39.42 159.237 39.644C158.845 39.868 158.532 40.1947 158.299 40.624C158.066 41.0533 157.949 41.5573 157.949 42.136C157.949 42.724 158.066 43.2373 158.299 43.676C158.532 44.1053 158.845 44.4367 159.237 44.67C159.629 44.894 160.063 45.006 160.539 45.006C161.015 45.006 161.449 44.894 161.841 44.67C162.242 44.4367 162.56 44.1053 162.793 43.676C163.026 43.2373 163.143 42.7287 163.143 42.15ZM167.858 39.574C168.082 39.1353 168.399 38.7947 168.81 38.552C169.23 38.3093 169.739 38.188 170.336 38.188V39.504H170C168.572 39.504 167.858 40.2787 167.858 41.828V46H166.584V38.328H167.858V39.574ZM171.331 42.136C171.331 41.352 171.489 40.666 171.807 40.078C172.124 39.4807 172.558 39.0187 173.109 38.692C173.669 38.3653 174.294 38.202 174.985 38.202C175.582 38.202 176.137 38.342 176.651 38.622C177.164 38.8927 177.556 39.252 177.827 39.7V35.64H179.115V46H177.827V44.558C177.575 45.0153 177.201 45.3933 176.707 45.692C176.212 45.9813 175.633 46.126 174.971 46.126C174.289 46.126 173.669 45.958 173.109 45.622C172.558 45.286 172.124 44.8147 171.807 44.208C171.489 43.6013 171.331 42.9107 171.331 42.136ZM177.827 42.15C177.827 41.5713 177.71 41.0673 177.477 40.638C177.243 40.2087 176.926 39.882 176.525 39.658C176.133 39.4247 175.699 39.308 175.223 39.308C174.747 39.308 174.313 39.42 173.921 39.644C173.529 39.868 173.216 40.1947 172.983 40.624C172.749 41.0533 172.633 41.5573 172.633 42.136C172.633 42.724 172.749 43.2373 172.983 43.676C173.216 44.1053 173.529 44.4367 173.921 44.67C174.313 44.894 174.747 45.006 175.223 45.006C175.699 45.006 176.133 44.894 176.525 44.67C176.926 44.4367 177.243 44.1053 177.477 43.676C177.71 43.2373 177.827 42.7287 177.827 42.15Z" fill="#064789"/>
</svg>
