<svg width="53" height="51" viewBox="0 0 53 51" fill="none" xmlns="http://www.w3.org/2000/svg">
<path d="M44.623 18.4167V17.9633C44.5226 14.1256 42.8485 10.4819 39.9661 7.82768C37.0837 5.17349 33.2271 3.72437 29.2383 3.79668C26.2676 3.77335 23.3532 4.57658 20.8458 6.10971C18.3384 7.64284 16.3448 9.84054 15.105 12.4383C11.5705 12.8407 8.32174 14.5051 6.00143 17.102C3.68112 19.699 2.45829 23.0394 2.57489 26.4624C2.69149 29.8853 4.13902 33.1415 6.63109 35.5867C9.12315 38.0319 12.4782 39.4879 16.0325 39.6667C15.6957 38.75 15.6957 37.75 16.0325 36.8333C13.1946 36.6167 10.5472 35.3739 8.62304 33.355C6.69883 31.3362 5.64053 28.691 5.66105 25.9517C5.68157 23.2124 6.77939 20.5821 8.73364 18.5902C10.6879 16.5982 13.3536 15.3923 16.1944 15.215H17.1808L17.5194 14.3225C18.4325 12.0405 20.0516 10.0831 22.1579 8.715C24.2643 7.34689 26.7563 6.63394 29.2972 6.67251C32.5053 6.59998 35.6131 7.75055 37.9433 9.87345C40.2736 11.9964 41.6374 14.9195 41.7375 18.0058C41.7578 18.3834 41.7578 18.7617 41.7375 19.1392L41.6197 20.1592L42.5767 20.5842C44.4275 21.3865 45.9346 22.7778 46.8446 24.524C47.7545 26.2702 48.0116 28.2646 47.5727 30.1718C47.1338 32.079 46.0257 33.7825 44.4347 34.9957C42.8437 36.209 40.867 36.8579 38.8372 36.8333H36.938C37.2748 37.75 37.2748 38.75 36.938 39.6667H38.8225C41.4408 39.6848 43.9907 38.8627 46.0693 37.3305C48.1479 35.7983 49.6366 33.6433 50.3002 31.206C50.9638 28.7687 50.7645 26.1881 49.7337 23.872C48.7029 21.5559 46.8995 19.6363 44.6083 18.4167H44.623Z" fill="black"/>
<path d="M32.8011 36.9325C32.6074 36.9314 32.4153 36.9671 32.2359 37.0376C32.0566 37.1081 31.8934 37.212 31.7558 37.3433L27.9722 40.9983V23.63C27.9722 23.2543 27.8171 22.8939 27.541 22.6282C27.2649 22.3626 26.8905 22.2133 26.5 22.2133C26.1096 22.2133 25.7351 22.3626 25.459 22.6282C25.1829 22.8939 25.0278 23.2543 25.0278 23.63V40.9983L21.2442 37.3575C20.9689 37.0888 20.594 36.9364 20.2019 36.9338C19.8099 36.9311 19.4328 37.0784 19.1536 37.3433C18.8744 37.6082 18.7161 37.969 18.7133 38.3462C18.7105 38.7235 18.8636 39.0863 19.1389 39.355L26.5 46.4383L33.8611 39.355C34.0687 39.1568 34.2103 38.9037 34.2679 38.6278C34.3254 38.3519 34.2962 38.0658 34.1841 37.8059C34.072 37.546 33.8819 37.3241 33.6382 37.1686C33.3946 37.013 33.1083 36.9308 32.8158 36.9325H32.8011Z" fill="black"/>
</svg>
