<svg width="30" height="30" viewBox="0 0 30 30" fill="none" xmlns="http://www.w3.org/2000/svg">
<path d="M15 30C12.9687 30 11.0254 29.6045 9.16992 28.8135C7.31445 28.0225 5.71777 26.958 4.37988 25.6201C3.04199 24.2822 1.97754 22.6855 1.18652 20.8301C0.395508 18.9746 0 17.0313 0 15C0 12.9687 0.395508 11.0254 1.18652 9.16992C1.97754 7.31445 3.04199 5.71777 4.37988 4.37988C5.71777 3.04199 7.31445 1.97754 9.16992 1.18652C11.0254 0.395508 12.9687 0 15 0C17.0313 0 18.9746 0.395508 20.8301 1.18652C22.6855 1.97754 24.2822 3.04199 25.6201 4.37988C26.958 5.71777 28.0225 7.31445 28.8135 9.16992C29.6045 11.0254 30 12.9687 30 15C30 17.0313 29.6045 18.9746 28.8135 20.8301C28.0225 22.6855 26.958 24.2822 25.6201 25.6201C24.2822 26.958 22.6855 28.0225 20.8301 28.8135C18.9746 29.6045 17.0313 30 15 30ZM12.8613 11.5723L10.2539 8.11523C10.2344 8.0957 10.2002 8.05664 10.1514 7.99805C10.1025 7.93945 10.0684 7.90527 10.0488 7.89551C10.0293 7.88574 10 7.85645 9.96094 7.80762C9.92187 7.75879 9.89258 7.72461 9.87305 7.70508C9.85352 7.68555 9.82422 7.66113 9.78516 7.63184C9.74609 7.60254 9.71191 7.58301 9.68262 7.57324C9.65332 7.56348 9.61914 7.54883 9.58008 7.5293C9.54102 7.50977 9.50195 7.49512 9.46289 7.48535C9.42383 7.47559 9.38477 7.4707 9.3457 7.4707C9.11133 7.4707 8.81836 7.70508 8.4668 8.17383L5.88867 11.6016C5.71289 11.7773 5.625 11.9873 5.625 12.2314C5.625 12.4756 5.71289 12.6855 5.88867 12.8613C6.06445 13.0371 6.2793 13.125 6.5332 13.125C6.78711 13.125 7.00195 13.0371 7.17773 12.8613L9.375 9.93164L11.5723 12.8613C11.748 13.0371 11.9629 13.125 12.2168 13.125C12.4707 13.125 12.6855 13.0371 12.8613 12.8613C13.0371 12.6855 13.125 12.4707 13.125 12.2168C13.125 11.9629 13.0371 11.748 12.8613 11.5723ZM24.1113 11.5723L21.5039 8.11523C21.2109 7.70508 20.9082 7.49023 20.5957 7.4707C20.3613 7.4707 20.0684 7.70508 19.7168 8.17383L17.1387 11.6016C16.9629 11.7773 16.875 11.9873 16.875 12.2314C16.875 12.4756 16.9629 12.6855 17.1387 12.8613C17.3145 13.0371 17.5293 13.125 17.7832 13.125C18.0371 13.125 18.252 13.0371 18.4277 12.8613L20.625 9.93164L22.8223 12.8613C22.998 13.0371 23.2129 13.125 23.4668 13.125C23.7207 13.125 23.9355 13.0371 24.1113 12.8613C24.2871 12.6855 24.375 12.4707 24.375 12.2168C24.375 11.9629 24.2871 11.748 24.1113 11.5723ZM23.4375 18.75C23.1836 18.75 22.9639 18.8428 22.7783 19.0283C22.5928 19.2139 22.5 19.4336 22.5 19.6875C22.2266 20.0781 21.9482 20.4248 21.665 20.7275C21.3818 21.0303 21.1182 21.2793 20.874 21.4746C20.6299 21.6699 20.3223 21.8359 19.9512 21.9727C19.5801 22.1094 19.2627 22.2119 18.999 22.2803C18.7354 22.3486 18.3447 22.3975 17.8271 22.4268C17.3096 22.4561 16.8848 22.4756 16.5527 22.4854C16.2207 22.4951 15.7031 22.5 15 22.5C14.2969 22.5 13.7793 22.4951 13.4473 22.4854C13.1152 22.4756 12.6904 22.4561 12.1729 22.4268C11.6553 22.3975 11.2646 22.3486 11.001 22.2803C10.7373 22.2119 10.4199 22.1094 10.0488 21.9727C9.67773 21.8359 9.37012 21.6699 9.12598 21.4746C8.88184 21.2793 8.61816 21.0303 8.33496 20.7275C8.05176 20.4248 7.77344 20.0781 7.5 19.6875C7.5 19.4336 7.40723 19.2139 7.22168 19.0283C7.03613 18.8428 6.81641 18.75 6.5625 18.75C6.30859 18.75 6.08887 18.8428 5.90332 19.0283C5.71777 19.2139 5.625 19.4336 5.625 19.6875C6.09375 21.1133 7.16797 22.251 8.84766 23.1006C10.5273 23.9502 12.5781 24.375 15 24.375C17.4219 24.375 19.4727 23.9502 21.1523 23.1006C22.832 22.251 23.9062 21.1133 24.375 19.6875C24.375 19.4336 24.2822 19.2139 24.0967 19.0283C23.9111 18.8428 23.6914 18.75 23.4375 18.75Z" fill="#FF6B00"/>
</svg>
