<svg width="75" height="74" viewBox="0 0 75 74" fill="none" xmlns="http://www.w3.org/2000/svg">
<path d="M68.75 27.75V21.5833H62.5V27.75H56.25V33.9167H62.5V40.0833H68.75V33.9167H75V27.75H68.75ZM25 37C31.9063 37 37.5 31.4808 37.5 24.6667C37.5 17.8525 31.9063 12.3333 25 12.3333C18.0937 12.3333 12.5 17.8525 12.5 24.6667C12.5 31.4808 18.0937 37 25 37ZM25 40.0833C16.6562 40.0833 0 44.215 0 52.4167V61.6667H50V52.4167C50 44.215 33.3438 40.0833 25 40.0833ZM39.0938 12.4875C41.9688 15.7558 43.75 20.0108 43.75 24.6667C43.75 29.3225 41.9688 33.5775 39.0938 36.8458C45.2188 36.075 50 30.9567 50 24.6667C50 18.3767 45.2188 13.2583 39.0938 12.4875V12.4875ZM51.6563 42.6425C54.4375 45.2017 56.25 48.4083 56.25 52.4167V61.6667H62.5V52.4167C62.5 47.9458 57.5313 44.6775 51.6563 42.6425Z" fill="#FFAC01"/>
</svg>
