<svg width="100" height="100" viewBox="0 0 100 100" fill="none" xmlns="http://www.w3.org/2000/svg">
<path d="M50 0C22.3857 0 0 22.3857 0 50C0 77.6143 22.3857 100 50 100C77.6143 100 100 77.6143 100 50C100 22.3857 77.6143 0 50 0ZM49.8987 27.8021C54.5106 27.8628 58.3306 31.6172 59.5998 36.4013C60.0837 38.3533 60.1383 40.3337 59.6504 42.4012C58.9148 45.3119 57.4423 48.1552 54.6985 49.9018L58.6973 51.8015L68.1991 56.4019C69.1323 56.8019 69.5985 57.6018 69.5985 58.8019V67.9996C69.5985 69.8965 69.7492 71.5323 67.398 72.2011H32.3993C30.1382 72.1685 30.0445 69.8783 30.0975 67.9996V58.8019C30.0975 57.6019 30.5982 56.7673 31.5982 56.3006L41.3975 51.8015L45.2001 50C43.4668 48.8667 42.0999 47.3014 41.0999 45.3014C39.8991 42.6611 39.423 39.2336 40.2989 36.1005C41.4062 31.8537 44.8743 28.0382 49.8987 27.8021ZM33.5993 32.0004C35.066 32.0004 36.3982 32.435 37.5981 33.3017C37.2653 34.2348 36.9835 35.2191 36.7495 36.2525C36.5163 37.2857 36.3981 38.3675 36.3981 39.5009C36.3981 41.1677 36.6311 42.7675 37.0978 44.3009C37.5643 45.8342 38.2319 47.2357 39.0988 48.5024C38.6988 49.0357 38.1666 49.5018 37.4998 49.9018L30.0973 53.3023C29.0973 53.8356 28.2974 54.5836 27.6974 55.5503C27.0974 56.517 26.7983 57.6019 26.7983 58.802V67.9997H19.5003C18.4415 67.9832 17.7264 66.9162 17.6987 65.8023V57.1018C17.6987 56.1018 18.064 55.434 18.7973 55.1007L29.8981 50C27.03 48.237 25.6463 45.0504 25.5003 41.502C25.5508 37.1302 28.4163 32.3636 33.5993 32.0004ZM66.3976 32.0004C71.0052 32.0732 74.3333 36.6413 74.4998 41.5021C74.4745 44.7183 73.2191 47.824 70.2983 49.9019L81.1994 55.1007C81.9328 55.5008 82.2981 56.1684 82.2981 57.1018V65.8024C82.2871 66.8351 81.7298 67.8943 80.4998 67.9997H72.9991V58.8019C72.9991 57.6019 72.6999 56.517 72.0999 55.5503C71.4999 54.5835 70.6999 53.8356 69.6999 53.3023C66.5912 51.8573 63.0211 50.8203 60.6985 48.4011C62.4318 45.7344 63.2979 42.7677 63.2979 39.5009C63.2979 37.4342 62.9326 35.3997 62.1992 33.3997C63.4036 32.6047 64.8291 32.0228 66.3976 32.0004Z" fill="#427AA1"/>
</svg>
