<svg width="856" height="611" viewBox="0 0 856 611" fill="none" xmlns="http://www.w3.org/2000/svg">
<g clip-path="url(#clip0)">
<path d="M39.5359 124.357C47.0638 124.357 53.1664 118.255 53.1664 110.727C53.1664 103.199 47.0638 97.0961 39.5359 97.0961C32.0079 97.0961 25.9053 103.199 25.9053 110.727C25.9053 118.255 32.0079 124.357 39.5359 124.357Z" fill="#1813FF"/>
<path d="M80.4276 124.357C87.9555 124.357 94.0581 118.255 94.0581 110.727C94.0581 103.199 87.9555 97.0961 80.4276 97.0961C72.8996 97.0961 66.797 103.199 66.797 110.727C66.797 118.255 72.8996 124.357 80.4276 124.357Z" fill="#1813FF"/>
<path d="M121.319 124.357C128.847 124.357 134.95 118.255 134.95 110.727C134.95 103.199 128.847 97.0961 121.319 97.0961C113.791 97.0961 107.689 103.199 107.689 110.727C107.689 118.255 113.791 124.357 121.319 124.357Z" fill="#1813FF"/>
<path d="M162.211 124.357C169.739 124.357 175.842 118.255 175.842 110.727C175.842 103.199 169.739 97.0961 162.211 97.0961C154.683 97.0961 148.58 103.199 148.58 110.727C148.58 118.255 154.683 124.357 162.211 124.357Z" fill="#1813FF"/>
<path d="M203.103 124.357C210.631 124.357 216.733 118.255 216.733 110.727C216.733 103.199 210.631 97.0961 203.103 97.0961C195.575 97.0961 189.472 103.199 189.472 110.727C189.472 118.255 195.575 124.357 203.103 124.357Z" fill="#1813FF"/>
<path d="M243.994 124.357C251.522 124.357 257.625 118.255 257.625 110.727C257.625 103.199 251.522 97.0961 243.994 97.0961C236.466 97.0961 230.364 103.199 230.364 110.727C230.364 118.255 236.466 124.357 243.994 124.357Z" fill="#1813FF"/>
<path d="M284.886 124.357C292.414 124.357 298.517 118.255 298.517 110.727C298.517 103.199 292.414 97.0961 284.886 97.0961C277.358 97.0961 271.255 103.199 271.255 110.727C271.255 118.255 277.358 124.357 284.886 124.357Z" fill="#1813FF"/>
<path d="M316.384 127.326H8.03828C6.56768 127.324 5.1578 126.739 4.11792 125.699C3.07804 124.659 2.49309 123.249 2.49136 121.779V99.6749C2.49309 98.2043 3.07804 96.7944 4.11792 95.7545C5.1578 94.7146 6.56768 94.1297 8.03828 94.1279H316.384C317.854 94.1297 319.264 94.7146 320.304 95.7545C321.344 96.7944 321.929 98.2043 321.931 99.6749V121.779C321.929 123.249 321.344 124.659 320.304 125.699C319.264 126.739 317.854 127.324 316.384 127.326V127.326ZM8.03828 96.3467C7.1559 96.3477 6.30993 96.6986 5.68599 97.3226C5.06205 97.9465 4.71109 98.7925 4.71013 99.6749V121.779C4.71109 122.661 5.06205 123.507 5.68599 124.131C6.30993 124.755 7.1559 125.106 8.03828 125.107H316.384C317.266 125.106 318.112 124.755 318.736 124.131C319.36 123.507 319.711 122.661 319.712 121.779V99.6749C319.711 98.7925 319.36 97.9465 318.736 97.3226C318.112 96.6986 317.266 96.3477 316.384 96.3467L8.03828 96.3467Z" fill="#E6E6E6"/>
<path d="M74.0261 3.18704C74.8711 3.18801 75.6812 3.5241 76.2786 4.12157C76.8761 4.71904 77.2122 5.52909 77.2131 6.37404V75.4367C77.2122 76.2816 76.8761 77.0917 76.2786 77.6891C75.6812 78.2866 74.8711 78.6227 74.0261 78.6237H6.37415C5.5292 78.6227 4.71913 78.2866 4.12166 77.6891C3.52419 77.0917 3.1881 76.2816 3.18713 75.4367V6.3741C3.1881 5.52915 3.52419 4.71908 4.12166 4.12161C4.71913 3.52414 5.5292 3.18805 6.37415 3.18709H74.0261V3.18704ZM74.0261 4.57764e-05H6.37415C4.68363 4.57764e-05 3.06235 0.671598 1.86697 1.86697C0.671598 3.06235 3.05176e-05 4.68363 3.05176e-05 6.37415V75.4367C3.05176e-05 77.1272 0.671598 78.7485 1.86697 79.9438C3.06235 81.1392 4.68363 81.8108 6.37415 81.8108H74.0261C75.7167 81.8108 77.3379 81.1392 78.5333 79.9438C79.7287 78.7485 80.4002 77.1272 80.4002 75.4367V6.3741C80.4002 4.68358 79.7287 3.0623 78.5333 1.86693C77.3379 0.671553 75.7167 2.65216e-06 74.0261 0V4.57764e-05Z" fill="#E6E6E6"/>
<path d="M63.4739 21.3406H18.337C18.1269 21.3419 17.9186 21.3016 17.7242 21.2221C17.5297 21.1426 17.3529 21.0254 17.2039 20.8773C17.0549 20.7293 16.9366 20.5531 16.8559 20.3592C16.7752 20.1652 16.7337 19.9572 16.7337 19.7471C16.7337 19.537 16.7752 19.329 16.8559 19.135C16.9366 18.9411 17.0549 18.7649 17.2039 18.6169C17.3529 18.4688 17.5297 18.3516 17.7242 18.2721C17.9186 18.1926 18.1269 18.1523 18.337 18.1536H63.4739C63.684 18.1523 63.8922 18.1926 64.0867 18.2721C64.2812 18.3516 64.458 18.4688 64.607 18.6169C64.756 18.7649 64.8743 18.9411 64.955 19.135C65.0357 19.329 65.0772 19.537 65.0772 19.7471C65.0772 19.9572 65.0357 20.1652 64.955 20.3592C64.8743 20.5531 64.756 20.7293 64.607 20.8773C64.458 21.0254 64.2812 21.1426 64.0867 21.2221C63.8922 21.3016 63.684 21.3419 63.4739 21.3406V21.3406Z" fill="#6C63FF"/>
<path d="M63.4739 32.6253H18.337C18.1269 32.6265 17.9186 32.5863 17.7242 32.5068C17.5297 32.4273 17.3529 32.3101 17.2039 32.162C17.0549 32.0139 16.9366 31.8378 16.8559 31.6438C16.7752 31.4499 16.7337 31.2418 16.7337 31.0318C16.7337 30.8217 16.7752 30.6136 16.8559 30.4197C16.9366 30.2257 17.0549 30.0496 17.2039 29.9015C17.3529 29.7534 17.5297 29.6363 17.7242 29.5567C17.9186 29.4772 18.1269 29.437 18.337 29.4383H63.4739C63.684 29.437 63.8922 29.4772 64.0867 29.5567C64.2812 29.6363 64.458 29.7534 64.607 29.9015C64.756 30.0496 64.8743 30.2257 64.955 30.4197C65.0357 30.6136 65.0772 30.8217 65.0772 31.0318C65.0772 31.2418 65.0357 31.4499 64.955 31.6438C64.8743 31.8378 64.756 32.0139 64.607 32.162C64.458 32.3101 64.2812 32.4273 64.0867 32.5068C63.8922 32.5863 63.684 32.6265 63.4739 32.6253V32.6253Z" fill="#6C63FF"/>
<path d="M63.4739 43.9091H18.337C18.1269 43.9104 17.9186 43.8701 17.7242 43.7906C17.5297 43.7111 17.3529 43.5939 17.2039 43.4458C17.0549 43.2977 16.9366 43.1216 16.8559 42.9276C16.7752 42.7337 16.7337 42.5257 16.7337 42.3156C16.7337 42.1055 16.7752 41.8975 16.8559 41.7035C16.9366 41.5095 17.0549 41.3334 17.2039 41.1853C17.3529 41.0372 17.5297 40.92 17.7242 40.8405C17.9186 40.761 18.1269 40.7208 18.337 40.7221H63.4739C63.684 40.7208 63.8922 40.761 64.0867 40.8405C64.2812 40.92 64.458 41.0372 64.607 41.1853C64.756 41.3334 64.8743 41.5095 64.955 41.7035C65.0357 41.8975 65.0772 42.1055 65.0772 42.3156C65.0772 42.5257 65.0357 42.7337 64.955 42.9276C64.8743 43.1216 64.756 43.2977 64.607 43.4458C64.458 43.5939 64.2812 43.7111 64.0867 43.7906C63.8922 43.8701 63.684 43.9104 63.4739 43.9091V43.9091Z" fill="#6C63FF"/>
<path d="M63.4739 55.1936H18.337C18.1269 55.1949 17.9186 55.1546 17.7242 55.0751C17.5297 54.9956 17.3529 54.8785 17.2039 54.7304C17.0549 54.5823 16.9366 54.4062 16.8559 54.2122C16.7752 54.0182 16.7337 53.8102 16.7337 53.6001C16.7337 53.39 16.7752 53.182 16.8559 52.988C16.9366 52.7941 17.0549 52.618 17.2039 52.4699C17.3529 52.3218 17.5297 52.2046 17.7242 52.1251C17.9186 52.0456 18.1269 52.0053 18.337 52.0066H63.4739C63.684 52.0053 63.8922 52.0456 64.0867 52.1251C64.2812 52.2046 64.458 52.3218 64.607 52.4699C64.756 52.618 64.8743 52.7941 64.955 52.988C65.0357 53.182 65.0772 53.39 65.0772 53.6001C65.0772 53.8102 65.0357 54.0182 64.955 54.2122C64.8743 54.4062 64.756 54.5823 64.607 54.7304C64.458 54.8785 64.2812 54.9956 64.0867 55.0751C63.8922 55.1546 63.684 55.1949 63.4739 55.1936V55.1936Z" fill="#6C63FF"/>
<path d="M63.4739 66.4783H18.337C17.9143 66.4783 17.509 66.3104 17.2102 66.0116C16.9113 65.7128 16.7434 65.3074 16.7434 64.8848C16.7434 64.4622 16.9113 64.0568 17.2102 63.758C17.509 63.4592 17.9143 63.2913 18.337 63.2913H63.4739C63.8965 63.2913 64.3018 63.4592 64.6007 63.758C64.8995 64.0568 65.0674 64.4622 65.0674 64.8848C65.0674 65.3074 64.8995 65.7128 64.6007 66.0116C64.3018 66.3104 63.8965 66.4783 63.4739 66.4783V66.4783Z" fill="#6C63FF"/>
<path d="M305.087 3.18704C305.932 3.18801 306.742 3.5241 307.34 4.12157C307.937 4.71904 308.273 5.52909 308.274 6.37404V75.4367C308.273 76.2816 307.937 77.0917 307.34 77.6891C306.742 78.2866 305.932 78.6227 305.087 78.6237H237.435C236.59 78.6227 235.78 78.2866 235.183 77.6891C234.585 77.0917 234.249 76.2816 234.248 75.4367V6.3741C234.249 5.52915 234.585 4.71908 235.183 4.12161C235.78 3.52414 236.59 3.18805 237.435 3.18709H305.087V3.18704ZM305.087 4.57764e-05H237.435C235.745 4.57764e-05 234.124 0.671598 232.928 1.86697C231.733 3.06235 231.061 4.68363 231.061 6.37415V75.4367C231.061 77.1272 231.733 78.7485 232.928 79.9438C234.124 81.1392 235.745 81.8108 237.435 81.8108H305.087C306.778 81.8108 308.399 81.1392 309.594 79.9438C310.79 78.7485 311.461 77.1272 311.461 75.4367V6.3741C311.461 4.68358 310.79 3.0623 309.594 1.86693C308.399 0.671552 306.778 0 305.087 0V4.57764e-05Z" fill="#E6E6E6"/>
<path d="M294.535 21.3406H249.398C249.188 21.3419 248.98 21.3016 248.785 21.2221C248.591 21.1426 248.414 21.0254 248.265 20.8773C248.116 20.7293 247.998 20.5531 247.917 20.3592C247.836 20.1652 247.795 19.9572 247.795 19.7471C247.795 19.537 247.836 19.329 247.917 19.135C247.998 18.9411 248.116 18.7649 248.265 18.6169C248.414 18.4688 248.591 18.3516 248.785 18.2721C248.98 18.1926 249.188 18.1523 249.398 18.1536H294.535C294.956 18.1562 295.359 18.3252 295.656 18.6238C295.952 18.9223 296.119 19.3262 296.119 19.7471C296.119 20.168 295.952 20.5719 295.656 20.8704C295.359 21.169 294.956 21.338 294.535 21.3406H294.535Z" fill="#6C63FF"/>
<path d="M294.535 32.6253H249.398C249.188 32.6265 248.98 32.5863 248.785 32.5068C248.591 32.4273 248.414 32.3101 248.265 32.162C248.116 32.0139 247.998 31.8378 247.917 31.6438C247.836 31.4499 247.795 31.2418 247.795 31.0318C247.795 30.8217 247.836 30.6136 247.917 30.4197C247.998 30.2257 248.116 30.0496 248.265 29.9015C248.414 29.7534 248.591 29.6363 248.785 29.5567C248.98 29.4772 249.188 29.437 249.398 29.4383H294.535C294.956 29.4408 295.359 29.6099 295.656 29.9084C295.952 30.207 296.119 30.6108 296.119 31.0318C296.119 31.4527 295.952 31.8565 295.656 32.1551C295.359 32.4536 294.956 32.6227 294.535 32.6253H294.535Z" fill="#6C63FF"/>
<path d="M294.535 43.9091H249.398C249.188 43.9104 248.98 43.8701 248.785 43.7906C248.591 43.7111 248.414 43.5939 248.265 43.4458C248.116 43.2977 247.998 43.1216 247.917 42.9276C247.836 42.7337 247.795 42.5257 247.795 42.3156C247.795 42.1055 247.836 41.8975 247.917 41.7035C247.998 41.5095 248.116 41.3334 248.265 41.1853C248.414 41.0372 248.591 40.92 248.785 40.8405C248.98 40.761 249.188 40.7208 249.398 40.7221H294.535C294.956 40.7247 295.359 40.8937 295.656 41.1922C295.952 41.4908 296.119 41.8946 296.119 42.3156C296.119 42.7365 295.952 43.1403 295.656 43.4389C295.359 43.7375 294.956 43.9065 294.535 43.9091H294.535Z" fill="#6C63FF"/>
<path d="M294.535 55.1936H249.398C249.188 55.1949 248.98 55.1546 248.785 55.0751C248.591 54.9956 248.414 54.8785 248.265 54.7304C248.116 54.5823 247.998 54.4062 247.917 54.2122C247.836 54.0182 247.795 53.8102 247.795 53.6001C247.795 53.39 247.836 53.182 247.917 52.988C247.998 52.7941 248.116 52.618 248.265 52.4699C248.414 52.3218 248.591 52.2046 248.785 52.1251C248.98 52.0456 249.188 52.0053 249.398 52.0066H294.535C294.956 52.0092 295.359 52.1782 295.656 52.4768C295.952 52.7753 296.119 53.1792 296.119 53.6001C296.119 54.021 295.952 54.4249 295.656 54.7234C295.359 55.022 294.956 55.191 294.535 55.1936H294.535Z" fill="#6C63FF"/>
<path d="M294.535 66.4783H249.398C248.976 66.4783 248.57 66.3104 248.271 66.0116C247.973 65.7128 247.805 65.3074 247.805 64.8848C247.805 64.4622 247.973 64.0568 248.271 63.758C248.57 63.4592 248.976 63.2913 249.398 63.2913H294.535C294.958 63.2913 295.363 63.4592 295.662 63.758C295.961 64.0568 296.129 64.4622 296.129 64.8848C296.129 65.3074 295.961 65.7128 295.662 66.0116C295.363 66.3104 294.958 66.4783 294.535 66.4783H294.535Z" fill="#6C63FF"/>
<path d="M535.026 135.978C535.871 135.979 536.681 136.315 537.279 136.913C537.876 137.51 538.212 138.32 538.213 139.165V208.228C538.212 209.073 537.876 209.883 537.279 210.48C536.681 211.078 535.871 211.414 535.026 211.415H467.374C466.529 211.414 465.719 211.078 465.122 210.48C464.524 209.883 464.188 209.073 464.187 208.228V139.165C464.188 138.321 464.524 137.51 465.122 136.913C465.719 136.316 466.529 135.979 467.374 135.978H535.026V135.978ZM535.026 132.791H467.374C465.684 132.791 464.062 133.463 462.867 134.658C461.672 135.854 461 137.475 461 139.166V208.228C461 209.919 461.672 211.54 462.867 212.735C464.062 213.931 465.684 214.602 467.374 214.602H535.026C536.717 214.602 538.338 213.931 539.533 212.735C540.729 211.54 541.4 209.919 541.4 208.228V139.165C541.4 137.475 540.729 135.854 539.533 134.658C538.338 133.463 536.717 132.791 535.026 132.791V132.791Z" fill="#6C63FF"/>
<path d="M524.474 154.132H479.337C479.127 154.133 478.919 154.093 478.724 154.013C478.53 153.934 478.353 153.817 478.204 153.669C478.055 153.521 477.937 153.344 477.856 153.15C477.775 152.956 477.734 152.748 477.734 152.538C477.734 152.328 477.775 152.12 477.856 151.926C477.937 151.732 478.055 151.556 478.204 151.408C478.353 151.26 478.53 151.143 478.724 151.063C478.919 150.984 479.127 150.944 479.337 150.945H524.474C524.895 150.947 525.298 151.116 525.594 151.415C525.891 151.714 526.058 152.117 526.058 152.538C526.058 152.959 525.891 153.363 525.594 153.662C525.298 153.96 524.895 154.129 524.474 154.132V154.132Z" fill="#6C63FF"/>
<path d="M524.474 165.417H479.337C478.914 165.417 478.509 165.249 478.21 164.95C477.911 164.651 477.743 164.246 477.743 163.823C477.743 163.4 477.911 162.995 478.21 162.696C478.509 162.397 478.914 162.229 479.337 162.229H524.474C524.897 162.229 525.302 162.397 525.601 162.696C525.9 162.995 526.067 163.4 526.067 163.823C526.067 164.246 525.9 164.651 525.601 164.95C525.302 165.249 524.897 165.417 524.474 165.417V165.417Z" fill="#6C63FF"/>
<path d="M524.474 176.7H479.337C479.127 176.701 478.919 176.661 478.725 176.581C478.531 176.502 478.354 176.385 478.205 176.237C478.056 176.088 477.938 175.912 477.858 175.719C477.777 175.525 477.736 175.317 477.736 175.107C477.736 174.897 477.777 174.689 477.858 174.495C477.938 174.301 478.056 174.125 478.205 173.977C478.354 173.829 478.531 173.712 478.725 173.632C478.919 173.553 479.127 173.512 479.337 173.513H524.474C524.895 173.516 525.298 173.685 525.594 173.984C525.891 174.282 526.058 174.686 526.058 175.107C526.058 175.528 525.891 175.932 525.594 176.23C525.298 176.529 524.895 176.698 524.474 176.7V176.7Z" fill="#6C63FF"/>
<path d="M524.474 187.985H479.337C479.127 187.986 478.919 187.946 478.724 187.867C478.53 187.787 478.353 187.67 478.204 187.522C478.055 187.374 477.937 187.198 477.856 187.004C477.775 186.81 477.734 186.602 477.734 186.392C477.734 186.182 477.775 185.974 477.856 185.78C477.937 185.586 478.055 185.409 478.204 185.261C478.353 185.113 478.53 184.996 478.724 184.917C478.919 184.837 479.127 184.797 479.337 184.798H524.474C524.895 184.801 525.298 184.97 525.594 185.268C525.891 185.567 526.058 185.971 526.058 186.392C526.058 186.813 525.891 187.216 525.594 187.515C525.298 187.814 524.895 187.983 524.474 187.985V187.985Z" fill="#6C63FF"/>
<path d="M524.474 199.27H479.337C479.127 199.271 478.919 199.231 478.724 199.151C478.53 199.072 478.353 198.954 478.204 198.806C478.055 198.658 477.937 198.482 477.856 198.288C477.775 198.094 477.734 197.886 477.734 197.676C477.734 197.466 477.775 197.258 477.856 197.064C477.937 196.87 478.055 196.694 478.204 196.546C478.353 196.398 478.53 196.281 478.724 196.201C478.919 196.122 479.127 196.081 479.337 196.083H524.474C524.895 196.085 525.298 196.254 525.594 196.553C525.891 196.851 526.058 197.255 526.058 197.676C526.058 198.097 525.891 198.501 525.594 198.799C525.298 199.098 524.895 199.267 524.474 199.27V199.27Z" fill="#6C63FF"/>
<path d="M190.442 81.8108H121.019C119.141 81.8086 117.341 81.0618 116.014 79.7343C114.686 78.4067 113.939 76.6068 113.937 74.7294V25.0531C113.939 23.1756 114.686 21.3755 116.014 20.0478C117.341 18.7201 119.141 17.9732 121.019 17.9709H190.442C192.32 17.973 194.12 18.7198 195.448 20.0475C196.775 21.3753 197.522 23.1754 197.524 25.0531V74.7294C197.522 76.6069 196.775 78.4069 195.447 79.7345C194.12 81.062 192.32 81.8087 190.442 81.8108V81.8108ZM121.019 21.158C119.986 21.1593 118.996 21.5701 118.266 22.3003C117.536 23.0305 117.125 24.0205 117.124 25.0531V74.7294C117.125 75.7619 117.536 76.7518 118.266 77.4819C118.996 78.212 119.986 78.6226 121.019 78.6237H190.442C191.475 78.6226 192.465 78.212 193.195 77.482C193.925 76.7519 194.336 75.762 194.337 74.7294V25.0531C194.336 24.0204 193.925 23.0304 193.195 22.3002C192.465 21.57 191.475 21.1592 190.442 21.158H121.019Z" fill="#E6E6E6"/>
<path d="M178.299 40.2001H133.162C132.741 40.1975 132.338 40.0285 132.042 39.7299C131.745 39.4314 131.578 39.0275 131.578 38.6066C131.578 38.1857 131.745 37.7818 132.042 37.4833C132.338 37.1847 132.741 37.0157 133.162 37.0131H178.299C178.509 37.0118 178.718 37.0521 178.912 37.1316C179.106 37.2111 179.283 37.3283 179.432 37.4763C179.581 37.6244 179.7 37.8005 179.78 37.9945C179.861 38.1885 179.902 38.3965 179.902 38.6066C179.902 38.8167 179.861 39.0247 179.78 39.2187C179.7 39.4126 179.581 39.5887 179.432 39.7368C179.283 39.8849 179.106 40.0021 178.912 40.0816C178.718 40.1611 178.509 40.2014 178.299 40.2001V40.2001Z" fill="#6C63FF"/>
<path d="M178.299 51.4848H133.162C132.741 51.4822 132.338 51.3131 132.042 51.0146C131.745 50.716 131.578 50.3122 131.578 49.8913C131.578 49.4703 131.745 49.0665 132.042 48.7679C132.338 48.4694 132.741 48.3003 133.162 48.2978H178.299C178.509 48.2965 178.718 48.3367 178.912 48.4162C179.106 48.4957 179.283 48.6129 179.432 48.761C179.581 48.9091 179.7 49.0852 179.78 49.2792C179.861 49.4732 179.902 49.6812 179.902 49.8913C179.902 50.1014 179.861 50.3094 179.78 50.5033C179.7 50.6973 179.581 50.8734 179.432 51.0215C179.283 51.1696 179.106 51.2868 178.912 51.3663C178.718 51.4458 178.509 51.486 178.299 51.4848V51.4848Z" fill="#6C63FF"/>
<path d="M178.299 62.7686H133.162C132.741 62.766 132.338 62.597 132.042 62.2984C131.745 61.9998 131.578 61.596 131.578 61.1751C131.578 60.7541 131.745 60.3503 132.042 60.0517C132.338 59.7532 132.741 59.5842 133.162 59.5816H178.299C178.509 59.5803 178.718 59.6205 178.912 59.7C179.106 59.7795 179.283 59.8967 179.432 60.0448C179.581 60.1929 179.7 60.369 179.78 60.563C179.861 60.757 179.902 60.965 179.902 61.1751C179.902 61.3852 179.861 61.5932 179.78 61.7871C179.7 61.9811 179.581 62.1572 179.432 62.3053C179.283 62.4534 179.106 62.5706 178.912 62.6501C178.718 62.7296 178.509 62.7699 178.299 62.7686V62.7686Z" fill="#6C63FF"/>
<path d="M420.8 109.338L354.124 90.0018C352.322 89.4767 350.801 88.2582 349.896 86.6134C348.99 84.9687 348.774 83.032 349.295 81.2282L363.131 33.5177C363.656 31.715 364.875 30.1941 366.52 29.2887C368.164 28.3833 370.101 28.1673 371.905 28.6881L438.581 48.0243C440.384 48.5492 441.905 49.7679 442.81 51.4129C443.716 53.0578 443.932 54.9948 443.411 56.7987L429.575 104.509C429.049 106.312 427.831 107.833 426.186 108.738C424.541 109.643 422.604 109.859 420.8 109.338V109.338ZM371.017 31.749C370.025 31.4627 368.96 31.5815 368.056 32.0795C367.151 32.5775 366.481 33.4139 366.192 34.4054L352.356 82.1159C352.07 83.1079 352.188 84.173 352.686 85.0775C353.184 85.9821 354.02 86.6522 355.012 86.9408L421.688 106.277C422.68 106.564 423.745 106.445 424.65 105.947C425.555 105.449 426.225 104.613 426.514 103.622L440.35 55.9111C440.636 54.9189 440.517 53.8537 440.019 52.949C439.522 52.0443 438.685 51.374 437.694 51.0852L371.017 31.749Z" fill="#E6E6E6"/>
<path d="M420.728 65.9918L377.377 53.42C376.972 53.3016 376.63 53.0274 376.427 52.6574C376.224 52.2874 376.176 51.852 376.293 51.4466C376.411 51.0412 376.684 50.699 377.054 50.4951C377.423 50.2912 377.859 50.2423 378.264 50.3591L421.615 62.9308C422.021 63.0485 422.364 63.3227 422.567 63.6929C422.771 64.0632 422.82 64.4992 422.702 64.9051C422.584 65.311 422.31 65.6536 421.94 65.8573C421.569 66.0611 421.133 66.1095 420.728 65.9918H420.728Z" fill="#6C63FF"/>
<path d="M417.585 76.8299L374.234 64.2582C374.033 64.1999 373.845 64.1026 373.682 63.9718C373.518 63.841 373.382 63.6794 373.281 63.496C373.181 63.3127 373.117 63.1113 373.094 62.9033C373.071 62.6953 373.089 62.4848 373.147 62.2838C373.205 62.0829 373.303 61.8953 373.433 61.732C373.564 61.5686 373.726 61.4325 373.909 61.3316C374.092 61.2307 374.294 61.1669 374.502 61.1439C374.71 61.1208 374.92 61.1389 375.121 61.1972L418.472 73.769C418.877 73.8873 419.219 74.1616 419.422 74.5316C419.625 74.9016 419.673 75.337 419.556 75.7424C419.438 76.1478 419.165 76.49 418.795 76.6938C418.426 76.8977 417.99 76.9467 417.585 76.8299V76.8299Z" fill="#6C63FF"/>
<path d="M414.442 87.6672L371.091 75.0954C370.686 74.9771 370.344 74.7028 370.141 74.3328C369.938 73.9628 369.89 73.5274 370.007 73.122C370.125 72.7166 370.398 72.3744 370.768 72.1705C371.138 71.9667 371.573 71.9177 371.979 72.0345L415.329 84.6062C415.735 84.7239 416.078 84.9981 416.282 85.3683C416.485 85.7386 416.534 86.1746 416.416 86.5805C416.298 86.9864 416.024 87.329 415.654 87.5327C415.284 87.7365 414.848 87.7849 414.442 87.6672V87.6672Z" fill="#6C63FF"/>
<path d="M855.418 607.775H156.106V610.775H855.418V607.775Z" fill="#E6E6E6"/>
<path d="M562.14 603.085H448.421L452.276 552.973H558.285L562.14 603.085Z" fill="#1813FF"/>
<path d="M569.849 597.303H442.639V608.868H569.849V597.303Z" fill="#E6E6E6"/>
<path d="M723.08 230.128H288.444C285.377 230.128 282.436 231.346 280.267 233.515C278.098 235.684 276.88 238.625 276.88 241.693V241.693V506.714H734.645V241.693C734.645 240.174 734.345 238.67 733.764 237.267C733.183 235.864 732.331 234.589 731.257 233.515C730.183 232.441 728.909 231.589 727.506 231.008C726.102 230.427 724.599 230.128 723.08 230.128H723.08Z" fill="#3F3D56"/>
<path d="M276.88 506.714V550.081C276.88 551.6 277.179 553.104 277.76 554.507C278.341 555.91 279.193 557.185 280.267 558.259C281.341 559.333 282.616 560.184 284.019 560.766C285.422 561.347 286.926 561.646 288.444 561.646H723.08C726.147 561.646 729.089 560.428 731.257 558.259C733.426 556.09 734.644 553.148 734.645 550.081V506.714H276.88Z" fill="#1813FF"/>
<path d="M712.479 254.221H300.009V485.512H712.479V254.221Z" fill="#E6E6E6"/>
<path d="M506.244 545.263C512.631 545.263 517.809 540.085 517.809 533.698C517.809 527.311 512.631 522.134 506.244 522.134C499.857 522.134 494.679 527.311 494.679 533.698C494.679 540.085 499.857 545.263 506.244 545.263Z" fill="white"/>
<path d="M312.87 263.99C314.082 263.99 315.065 263.007 315.065 261.795C315.065 260.583 314.082 259.601 312.87 259.601C311.658 259.601 310.675 260.583 310.675 261.795C310.675 263.007 311.658 263.99 312.87 263.99Z" fill="white"/>
<path d="M321.2 263.99C322.412 263.99 323.395 263.007 323.395 261.795C323.395 260.583 322.412 259.601 321.2 259.601C319.988 259.601 319.006 260.583 319.006 261.795C319.006 263.007 319.988 263.99 321.2 263.99Z" fill="white"/>
<path d="M329.531 263.99C330.743 263.99 331.725 263.007 331.725 261.795C331.725 260.583 330.743 259.601 329.531 259.601C328.319 259.601 327.336 260.583 327.336 261.795C327.336 263.007 328.319 263.99 329.531 263.99Z" fill="white"/>
<path d="M700.591 269.253H310.675V463.5H700.591V269.253Z" fill="white"/>
<path d="M336.594 298.799C336.229 298.799 335.878 298.945 335.62 299.203C335.361 299.461 335.216 299.812 335.216 300.177V369.853C335.216 370.219 335.361 370.569 335.62 370.827C335.878 371.086 336.229 371.231 336.594 371.231H417.059C417.424 371.231 417.774 371.086 418.033 370.827C418.291 370.569 418.437 370.219 418.437 369.853V300.177C418.437 299.812 418.291 299.461 418.033 299.203C417.774 298.945 417.424 298.799 417.059 298.799H336.594Z" fill="#E6E6E6"/>
<path d="M465.79 299.023C465.424 299.023 465.074 299.169 464.815 299.427C464.557 299.685 464.411 300.036 464.411 300.401V369.853C464.411 370.219 464.557 370.569 464.815 370.827C465.074 371.086 465.424 371.231 465.79 371.231H545.998C546.363 371.231 546.714 371.086 546.972 370.827C547.23 370.569 547.376 370.218 547.376 369.853V300.401C547.376 300.036 547.23 299.686 546.972 299.427C546.714 299.169 546.363 299.023 545.998 299.023H465.79Z" fill="#E6E6E6"/>
<path d="M593.631 298.295C593.265 298.295 592.915 298.441 592.657 298.699C592.398 298.958 592.253 299.308 592.253 299.673V369.853C592.253 370.218 592.398 370.569 592.657 370.827C592.915 371.086 593.265 371.231 593.631 371.231H674.673C675.038 371.231 675.388 371.086 675.647 370.827C675.905 370.569 676.05 370.218 676.051 369.853V299.673C676.05 299.308 675.905 298.958 675.647 298.699C675.388 298.441 675.038 298.295 674.673 298.295H593.631Z" fill="#E6E6E6"/>
<path d="M338.065 405.721C337.31 405.722 336.587 406.023 336.054 406.557C335.52 407.092 335.221 407.816 335.221 408.571C335.221 409.325 335.52 410.05 336.054 410.584C336.587 411.118 337.31 411.419 338.065 411.42H413.718C414.473 411.419 415.196 411.118 415.729 410.584C416.263 410.05 416.562 409.325 416.562 408.571C416.562 407.816 416.263 407.092 415.729 406.557C415.196 406.023 414.473 405.722 413.718 405.721H338.065Z" fill="#E6E6E6"/>
<path d="M338.065 419.276C337.31 419.278 336.587 419.579 336.053 420.113C335.52 420.647 335.221 421.371 335.221 422.126C335.221 422.881 335.52 423.606 336.053 424.14C336.587 424.674 337.31 424.975 338.065 424.977H372.127C372.882 424.975 373.606 424.674 374.139 424.14C374.673 423.606 374.972 422.881 374.972 422.126C374.972 421.371 374.673 420.647 374.139 420.113C373.606 419.579 372.882 419.278 372.127 419.276H338.065Z" fill="#6C63FF"/>
<path d="M468.649 405.721C467.894 405.722 467.171 406.023 466.638 406.557C466.104 407.092 465.805 407.816 465.805 408.571C465.805 409.325 466.104 410.05 466.638 410.584C467.171 411.118 467.894 411.419 468.649 411.42H544.302C545.057 411.419 545.78 411.118 546.313 410.584C546.847 410.05 547.146 409.325 547.146 408.571C547.146 407.816 546.847 407.092 546.313 406.557C545.78 406.023 545.057 405.722 544.302 405.721H468.649Z" fill="#E6E6E6"/>
<path d="M468.649 419.276C467.894 419.278 467.171 419.579 466.637 420.113C466.104 420.647 465.805 421.371 465.805 422.126C465.805 422.881 466.104 423.606 466.637 424.14C467.171 424.674 467.894 424.975 468.649 424.977H502.712C503.467 424.975 504.19 424.674 504.724 424.14C505.257 423.606 505.557 422.881 505.557 422.126C505.557 421.371 505.257 420.647 504.724 420.113C504.19 419.579 503.467 419.278 502.712 419.276H468.649Z" fill="#6C63FF"/>
<path d="M595.97 405.721C595.215 405.722 594.491 406.023 593.958 406.557C593.425 407.092 593.125 407.816 593.125 408.571C593.125 409.325 593.425 410.05 593.958 410.584C594.491 411.118 595.215 411.419 595.97 411.42H671.622C672.377 411.419 673.1 411.118 673.634 410.584C674.167 410.05 674.466 409.325 674.466 408.571C674.466 407.816 674.167 407.092 673.634 406.557C673.1 406.023 672.377 405.722 671.622 405.721H595.97Z" fill="#E6E6E6"/>
<path d="M338.065 391.721C337.31 391.722 336.587 392.023 336.054 392.557C335.52 393.092 335.221 393.816 335.221 394.571C335.221 395.325 335.52 396.05 336.054 396.584C336.587 397.118 337.31 397.419 338.065 397.42H413.718C414.473 397.419 415.196 397.118 415.729 396.584C416.263 396.05 416.562 395.325 416.562 394.571C416.562 393.816 416.263 393.092 415.729 392.557C415.196 392.023 414.473 391.722 413.718 391.721H338.065Z" fill="#E6E6E6"/>
<path d="M468.649 391.721C467.894 391.722 467.171 392.023 466.638 392.557C466.104 393.092 465.805 393.816 465.805 394.571C465.805 395.325 466.104 396.05 466.638 396.584C467.171 397.118 467.894 397.419 468.649 397.42H544.302C545.057 397.419 545.78 397.118 546.313 396.584C546.847 396.05 547.146 395.325 547.146 394.571C547.146 393.816 546.847 393.092 546.313 392.557C545.78 392.023 545.057 391.722 544.302 391.721H468.649Z" fill="#E6E6E6"/>
<path d="M595.97 391.721C595.215 391.722 594.491 392.023 593.958 392.557C593.425 393.092 593.125 393.816 593.125 394.571C593.125 395.325 593.425 396.05 593.958 396.584C594.491 397.118 595.215 397.419 595.97 397.42H671.622C672.377 397.419 673.1 397.118 673.634 396.584C674.167 396.05 674.466 395.325 674.466 394.571C674.466 393.816 674.167 393.092 673.634 392.557C673.1 392.023 672.377 391.722 671.622 391.721H595.97Z" fill="#E6E6E6"/>
<path d="M595.97 419.276C595.215 419.278 594.491 419.579 593.958 420.113C593.424 420.647 593.125 421.371 593.125 422.126C593.125 422.881 593.424 423.606 593.958 424.14C594.491 424.674 595.215 424.975 595.97 424.977H630.031C630.786 424.975 631.51 424.674 632.043 424.14C632.576 423.606 632.876 422.881 632.876 422.126C632.876 421.371 632.576 420.647 632.043 420.113C631.51 419.579 630.786 419.278 630.031 419.276H595.97Z" fill="#6C63FF"/>
</g>
<defs>
<clipPath id="clip0">
<rect width="855.418" height="610.775" fill="white"/>
</clipPath>
</defs>
</svg>
