<svg width="932" height="568" viewBox="0 0 932 568" fill="none" xmlns="http://www.w3.org/2000/svg">
<g clip-path="url(#clip0)">
<path d="M823.618 17.7754H175.252V325.436H823.618V17.7754Z" fill="#E6E6E6"/>
<path d="M805.079 44.1578H193.793V300.849H805.079V44.1578Z" fill="white"/>
<path d="M823.342 0H174.976V27.5445H823.342V0Z" fill="#514EFF"/>
<path d="M458.194 10.83V13.386H462.316V15.762H458.194V18.534H462.856V21H455.116V8.364H462.856V10.83H458.194ZM470.794 21L468.868 18.21L467.248 21H463.918L467.23 15.87L463.828 10.956H467.284L469.21 13.728L470.83 10.956H474.16L470.794 16.014L474.25 21H470.794ZM478.514 12.378C478.814 11.91 479.228 11.532 479.756 11.244C480.284 10.956 480.902 10.812 481.61 10.812C482.438 10.812 483.188 11.022 483.86 11.442C484.532 11.862 485.06 12.462 485.444 13.242C485.84 14.022 486.038 14.928 486.038 15.96C486.038 16.992 485.84 17.904 485.444 18.696C485.06 19.476 484.532 20.082 483.86 20.514C483.188 20.934 482.438 21.144 481.61 21.144C480.914 21.144 480.296 21 479.756 20.712C479.228 20.424 478.814 20.052 478.514 19.596V25.788H475.436V10.956H478.514V12.378ZM482.906 15.96C482.906 15.192 482.69 14.592 482.258 14.16C481.838 13.716 481.316 13.494 480.692 13.494C480.08 13.494 479.558 13.716 479.126 14.16C478.706 14.604 478.496 15.21 478.496 15.978C478.496 16.746 478.706 17.352 479.126 17.796C479.558 18.24 480.08 18.462 480.692 18.462C481.304 18.462 481.826 18.24 482.258 17.796C482.69 17.34 482.906 16.728 482.906 15.96ZM497.121 15.816C497.121 16.104 497.103 16.404 497.067 16.716H490.101C490.149 17.34 490.347 17.82 490.695 18.156C491.055 18.48 491.493 18.642 492.009 18.642C492.777 18.642 493.311 18.318 493.611 17.67H496.887C496.719 18.33 496.413 18.924 495.969 19.452C495.537 19.98 494.991 20.394 494.331 20.694C493.671 20.994 492.933 21.144 492.117 21.144C491.133 21.144 490.257 20.934 489.489 20.514C488.721 20.094 488.121 19.494 487.689 18.714C487.257 17.934 487.041 17.022 487.041 15.978C487.041 14.934 487.251 14.022 487.671 13.242C488.103 12.462 488.703 11.862 489.471 11.442C490.239 11.022 491.121 10.812 492.117 10.812C493.089 10.812 493.953 11.016 494.709 11.424C495.465 11.832 496.053 12.414 496.473 13.17C496.905 13.926 497.121 14.808 497.121 15.816ZM493.971 15.006C493.971 14.478 493.791 14.058 493.431 13.746C493.071 13.434 492.621 13.278 492.081 13.278C491.565 13.278 491.127 13.428 490.767 13.728C490.419 14.028 490.203 14.454 490.119 15.006H493.971ZM504.343 18.39V21H502.777C501.661 21 500.791 20.73 500.167 20.19C499.543 19.638 499.231 18.744 499.231 17.508V13.512H498.007V10.956H499.231V8.508H502.309V10.956H504.325V13.512H502.309V17.544C502.309 17.844 502.381 18.06 502.525 18.192C502.669 18.324 502.909 18.39 503.245 18.39H504.343ZM509.135 12.63C509.495 12.078 509.945 11.646 510.485 11.334C511.025 11.01 511.625 10.848 512.285 10.848V14.106H511.439C510.671 14.106 510.095 14.274 509.711 14.61C509.327 14.934 509.135 15.51 509.135 16.338V21H506.057V10.956H509.135V12.63Z" fill="white"/>
<rect x="518" y="1" width="6.77895" height="20" fill="white"/>
<rect x="526.716" y="6" width="7.74737" height="15" fill="white"/>
<rect x="536.4" y="12" width="6.77895" height="9" fill="white"/>
<path d="M771.105 19.2105C773.925 19.2105 776.211 16.9248 776.211 14.1053C776.211 11.2857 773.925 9 771.105 9C768.286 9 766 11.2857 766 14.1053C766 16.9248 768.286 19.2105 771.105 19.2105Z" fill="white"/>
<path d="M790.483 19.2105C793.303 19.2105 795.588 16.9248 795.588 14.1053C795.588 11.2857 793.303 9 790.483 9C787.664 9 785.378 11.2857 785.378 14.1053C785.378 16.9248 787.664 19.2105 790.483 19.2105Z" fill="white"/>
<path d="M809.862 19.2105C812.682 19.2105 814.967 16.9248 814.967 14.1053C814.967 11.2857 812.682 9 809.862 9C807.043 9 804.757 11.2857 804.757 14.1053C804.757 16.9248 807.043 19.2105 809.862 19.2105Z" fill="white"/>
<path d="M338.167 240.79H647.118V187.837C647.071 182.253 645.91 176.735 643.701 171.606C641.493 166.478 638.282 161.842 634.258 157.971L634.174 157.889C628.656 152.352 610.215 138.3 591.134 139.492C581.055 140.119 572.426 144.977 565.487 153.929C543.888 181.807 515.515 172.397 500.525 164.306C487.314 157.175 473.823 153.828 460.423 154.361C441.656 155.094 415.241 162.008 395.977 190.778C388.619 201.757 372.618 216.661 338.167 225.42V240.79Z" fill="#514EFF" fill-opacity="0.11"/>
<path d="M664.598 242.021H338.762C338.491 242.021 338.232 241.914 338.041 241.722C337.85 241.531 337.742 241.272 337.742 241.001V84.828C337.742 84.5575 337.85 84.2981 338.041 84.1069C338.232 83.9157 338.491 83.8082 338.762 83.8082C339.032 83.8082 339.292 83.9157 339.483 84.1069C339.674 84.2981 339.782 84.5575 339.782 84.828V239.982H664.598C664.869 239.982 665.128 240.089 665.319 240.28C665.511 240.472 665.618 240.731 665.618 241.001C665.618 241.272 665.511 241.531 665.319 241.723C665.128 241.914 664.869 242.021 664.598 242.021Z" fill="#3F3D56"/>
<path d="M400.741 181.964H398.741V240.586H400.741V181.964Z" fill="#3F3D56"/>
<path d="M460.618 154.586H458.618V240.586H460.618V154.586Z" fill="#3F3D56"/>
<path d="M520.618 172.586H518.618V240.586H520.618V172.586Z" fill="#3F3D56"/>
<path d="M580.618 139.586H578.618V240.586H580.618V139.586Z" fill="#3F3D56"/>
<path d="M640.618 162.586H638.618V240.586H640.618V162.586Z" fill="#3F3D56"/>
<path d="M459.741 162.083C463.12 162.083 465.86 159.344 465.86 155.965C465.86 152.586 463.12 149.846 459.741 149.846C456.362 149.846 453.623 152.586 453.623 155.965C453.623 159.344 456.362 162.083 459.741 162.083Z" fill="#6C63FF"/>
<path d="M579.741 146.083C583.12 146.083 585.86 143.344 585.86 139.965C585.86 136.586 583.12 133.846 579.741 133.846C576.362 133.846 573.623 136.586 573.623 139.965C573.623 143.344 576.362 146.083 579.741 146.083Z" fill="#6C63FF"/>
<path d="M519.741 179.083C523.12 179.083 525.86 176.344 525.86 172.965C525.86 169.586 523.12 166.846 519.741 166.846C516.362 166.846 513.623 169.586 513.623 172.965C513.623 176.344 516.362 179.083 519.741 179.083Z" fill="#6C63FF"/>
<path d="M399.741 188.083C403.12 188.083 405.86 185.344 405.86 181.965C405.86 178.586 403.12 175.846 399.741 175.846C396.362 175.846 393.623 178.586 393.623 181.965C393.623 185.344 396.362 188.083 399.741 188.083Z" fill="#6C63FF"/>
<path d="M639.741 168.083C643.12 168.083 645.86 165.344 645.86 161.965C645.86 158.586 643.12 155.846 639.741 155.846C636.362 155.846 633.623 158.586 633.623 161.965C633.623 165.344 636.362 168.083 639.741 168.083Z" fill="#6C63FF"/>
<path d="M136.913 555.469H149.173L155.005 508.181L136.911 508.182L136.913 555.469Z" fill="#FFB6B6"/>
<path d="M133.785 551.467L157.929 551.466H157.93C162.011 551.466 165.925 553.087 168.81 555.973C171.695 558.858 173.317 562.771 173.317 566.852V567.352L133.786 567.354L133.785 551.467Z" fill="#2F2E41"/>
<path d="M194.913 555.469H207.173L213.005 508.181L194.911 508.182L194.913 555.469Z" fill="#FFB6B6"/>
<path d="M191.785 551.467L215.929 551.466H215.93C220.011 551.466 223.925 553.087 226.81 555.973C229.695 558.858 231.317 562.771 231.317 566.852V567.352L191.786 567.354L191.785 551.467Z" fill="#2F2E41"/>
<path d="M217.793 339.284C218.829 338.104 219.594 336.711 220.034 335.204C220.473 333.696 220.577 332.11 220.337 330.558C220.098 329.006 219.521 327.525 218.647 326.22C217.773 324.915 216.624 323.817 215.28 323.005L195.329 227.216L173.593 235.779L200.039 327.244C198.824 329.592 198.511 332.304 199.162 334.867C199.812 337.43 201.38 339.666 203.568 341.15C205.756 342.634 208.413 343.264 211.035 342.92C213.657 342.576 216.061 341.283 217.793 339.285V339.284Z" fill="#FFB6B6"/>
<path d="M123.764 320.838L114.728 330.011C114.728 330.011 105.04 365.514 123.579 409.3L135.979 536.25L158.289 537.93L164.949 390.234L195.679 439.26L190.311 537.405L214.972 536.838L226.118 428.086L195.679 314.602L123.764 320.838Z" fill="#2F2E41"/>
<path d="M155.361 333.195C141.754 333.101 128.164 332.203 114.662 330.507L114.119 330.435L127.585 271.249L122.948 195.098L166.736 193.598C170.7 193.455 174.577 194.78 177.624 197.32C180.67 199.861 182.67 203.437 183.241 207.362L192.203 268.117L200.493 322.02L200.382 322.182C194.425 330.917 174.506 333.195 155.361 333.195Z" fill="#514EFF"/>
<path d="M162.752 206.193L171.649 195.04C171.649 195.04 187.246 184.374 192.182 207.23C197.118 230.086 206.289 267.19 206.289 267.19L175.791 269.66L162.752 206.193Z" fill="#514EFF"/>
<path d="M78.4434 340.284C77.4072 339.104 76.6423 337.711 76.2027 336.204C75.7631 334.696 75.6593 333.11 75.8989 331.558C76.1384 330.006 76.7154 328.525 77.5891 327.22C78.4628 325.915 79.612 324.817 80.9558 324.005L100.907 228.216L122.643 236.779L96.1968 328.244C97.4127 330.592 97.7251 333.304 97.0747 335.867C96.4244 338.43 94.8565 340.666 92.6681 342.15C90.4798 343.634 87.823 344.264 85.2013 343.92C82.5796 343.576 80.1751 342.283 78.4434 340.285V340.284Z" fill="#FFB6B6"/>
<path d="M133.484 207.193L124.587 196.04C124.587 196.04 108.99 185.374 104.054 208.23C99.1181 231.086 89.9469 268.19 89.9469 268.19L120.445 270.66L133.484 207.193Z" fill="#514EFF"/>
<path d="M170.978 182.461H112.978C111.785 182.46 110.641 181.986 109.798 181.142C108.954 180.298 108.48 179.154 108.478 177.961V152.961C108.478 144.077 112.008 135.556 118.29 129.273C124.573 122.991 133.094 119.461 141.978 119.461C150.863 119.461 159.384 122.991 165.666 129.273C171.949 135.556 175.478 144.077 175.478 152.961V177.961C175.477 179.154 175.002 180.298 174.159 181.142C173.315 181.986 172.171 182.46 170.978 182.461V182.461Z" fill="#2F2E41"/>
<path d="M148.382 180.956C161.947 180.956 172.943 169.959 172.943 156.395C172.943 142.83 161.947 131.833 148.382 131.833C134.817 131.833 123.821 142.83 123.821 156.395C123.821 169.959 134.817 180.956 148.382 180.956Z" fill="#FFB6B6"/>
<path d="M183.404 155.461H147.938L147.574 150.37L145.756 155.461H140.295L139.574 145.37L135.97 155.461H125.404V154.961C125.411 147.936 128.206 141.2 133.174 136.232C138.142 131.264 144.878 128.469 151.903 128.461H156.904C163.929 128.469 170.665 131.264 175.633 136.232C180.601 141.2 183.396 147.936 183.404 154.961V155.461Z" fill="#2F2E41"/>
<path d="M147.648 187.128C147.381 187.128 147.114 187.104 146.851 187.058L120.882 182.476V139.556H149.469L148.761 140.381C138.914 151.865 146.333 170.488 151.632 180.566C152.022 181.304 152.196 182.137 152.134 182.97C152.072 183.803 151.775 184.601 151.279 185.273C150.864 185.847 150.318 186.315 149.687 186.637C149.055 186.96 148.357 187.128 147.648 187.128Z" fill="#2F2E41"/>
<path d="M864.323 555.469H852.064L846.231 508.181L864.326 508.182L864.323 555.469Z" fill="#9E616A"/>
<path d="M867.45 567.354L827.919 567.352V566.852C827.92 562.771 829.541 558.858 832.426 555.973C835.312 553.087 839.225 551.466 843.306 551.466H843.307L867.451 551.467L867.45 567.354Z" fill="#2F2E41"/>
<path d="M820.323 555.469H808.064L802.231 508.181L820.326 508.182L820.323 555.469Z" fill="#9E616A"/>
<path d="M823.45 567.354L783.919 567.352V566.852C783.92 562.771 785.541 558.858 788.426 555.973C791.312 553.087 795.225 551.466 799.306 551.466H799.307L823.451 551.467L823.45 567.354Z" fill="#2F2E41"/>
<path d="M677.538 224.113C678.518 225.461 679.781 226.577 681.239 227.384C682.697 228.19 684.314 228.667 685.976 228.781C687.638 228.895 689.305 228.643 690.859 228.043C692.414 227.443 693.818 226.509 694.972 225.308L719.231 234.781L728.583 221.443L694.137 208.547C691.991 206.741 689.256 205.785 686.452 205.861C683.648 205.937 680.969 207.038 678.923 208.957C676.877 210.876 675.606 213.479 675.351 216.272C675.095 219.065 675.874 221.855 677.538 224.113V224.113Z" fill="#9E616A"/>
<path d="M820.169 304.925L788.229 315.344L798.899 541.54L823.549 542.15L836.164 382.633L839.029 541.52L869.508 543.2L880.744 304.925H820.169Z" fill="#3F3D56"/>
<path d="M798.618 171.586L880.593 153.775L889.709 224.36L882.118 258.086L885.159 309.34C885.159 309.34 820.34 341.601 788.229 315.344C788.229 315.344 814.038 247.554 799.078 215.82L798.618 171.586Z" fill="#3F3D56"/>
<path d="M812.815 181.57L798.618 171.586C798.618 171.586 797.78 170.425 785.949 184.255C774.118 198.086 750.118 220.086 750.118 220.086L710.118 205.086L702.831 232.011L749.319 253.675L815.135 209.72L812.815 181.57Z" fill="#3F3D56"/>
<path d="M885.173 335.799C886.68 335.087 888.012 334.054 889.076 332.772C890.14 331.49 890.91 329.99 891.331 328.378C891.753 326.766 891.816 325.081 891.516 323.443C891.216 321.804 890.56 320.251 889.595 318.892L903.421 296.823L892.06 285.15L872.972 316.59C870.798 318.363 869.349 320.871 868.901 323.64C868.453 326.409 869.037 329.246 870.541 331.614C872.045 333.982 874.365 335.716 877.062 336.487C879.759 337.258 882.645 337.013 885.173 335.799V335.799Z" fill="#9E616A"/>
<path d="M867.807 167.68L880.593 153.775C880.593 153.775 894.839 148.814 906.479 174.45C918.118 200.086 931.118 252.086 931.118 252.086L900.723 310.633L877.118 300.086L900.723 251.673L875.744 215.82L867.807 167.68Z" fill="#3F3D56"/>
<path d="M846.126 147.986C859.021 140.937 863.76 124.769 856.711 111.874C849.662 98.979 833.495 94.2399 820.6 101.289C807.705 108.338 802.966 124.506 810.015 137.401C817.064 150.296 833.232 155.035 846.126 147.986Z" fill="#9E616A"/>
<path d="M858.39 103.364L859.68 100.768L853.189 97.5431C853.189 97.5431 846.028 85.8921 833.071 89.1663C820.113 92.4405 814.284 94.4 814.284 94.4L807.809 97.6578L811.059 100.891L805.229 102.851L809.124 104.786L804.592 107.39L807.032 120.742C807.032 120.742 811.083 110.615 818.872 114.485C826.661 118.355 840.909 112.485 840.909 112.485L853.287 136.44C853.287 136.44 855.84 128.042 860.393 130.281C860.393 130.281 872.025 111.758 858.39 103.364Z" fill="#2F2E41"/>
<path d="M300 567.586H1C0.734784 567.586 0.480429 567.481 0.292892 567.293C0.105356 567.106 0 566.851 0 566.586C0 566.321 0.105356 566.066 0.292892 565.879C0.480429 565.691 0.734784 565.586 1 565.586H300C300.265 565.586 300.52 565.691 300.707 565.879C300.895 566.066 301 566.321 301 566.586C301 566.851 300.895 567.106 300.707 567.293C300.52 567.481 300.265 567.586 300 567.586Z" fill="#CACACA"/>
<path d="M931 567.586H702C701.735 567.586 701.48 567.481 701.293 567.293C701.105 567.106 701 566.851 701 566.586C701 566.321 701.105 566.066 701.293 565.879C701.48 565.691 701.735 565.586 702 565.586H931C931.265 565.586 931.52 565.691 931.707 565.879C931.895 566.066 932 566.321 932 566.586C932 566.851 931.895 567.106 931.707 567.293C931.52 567.481 931.265 567.586 931 567.586Z" fill="#CACACA"/>
</g>
<defs>
<clipPath id="clip0">
<rect width="932" height="567.586" fill="white"/>
</clipPath>
</defs>
</svg>
