<svg width="200" height="56" viewBox="0 0 200 56" fill="none" xmlns="http://www.w3.org/2000/svg">
<g clip-path="url(#clip0_144_11)">
<path d="M9.51023 21.8367V27.6327H18.8572V33.0204H9.51023V39.3061H20.0817V44.898H2.53064V16.2449H20.0817V21.8367H9.51023ZM38.0823 44.898L33.715 38.5714L30.0415 44.898H22.4905L30.0007 33.2653L22.2864 22.1225H30.1232L34.4905 28.4082L38.164 22.1225H45.715L38.0823 33.5918L45.9191 44.898H38.0823ZM55.588 25.3469C56.2683 24.2857 57.2071 23.4286 58.4044 22.7755C59.6017 22.1225 61.003 21.7959 62.6085 21.7959C64.486 21.7959 66.1867 22.2721 67.7105 23.2245C69.2343 24.1769 70.4316 25.5374 71.3023 27.3061C72.2003 29.0748 72.6493 31.1293 72.6493 33.4694C72.6493 35.8095 72.2003 37.8776 71.3023 39.6735C70.4316 41.4422 69.2343 42.8163 67.7105 43.7959C66.1867 44.7483 64.486 45.2245 62.6085 45.2245C61.0302 45.2245 59.6289 44.898 58.4044 44.2449C57.2071 43.5918 56.2683 42.7483 55.588 41.7143V55.7551H48.6085V22.1225H55.588V25.3469ZM65.5472 33.4694C65.5472 31.7279 65.0574 30.3674 64.0778 29.3878C63.1255 28.381 61.9418 27.8776 60.5268 27.8776C59.1391 27.8776 57.9554 28.381 56.9758 29.3878C56.0234 30.3946 55.5472 31.7687 55.5472 33.5102C55.5472 35.2517 56.0234 36.6259 56.9758 37.6327C57.9554 38.6395 59.1391 39.1429 60.5268 39.1429C61.9146 39.1429 63.0982 38.6395 64.0778 37.6327C65.0574 36.5986 65.5472 35.2109 65.5472 33.4694ZM97.7803 33.1429C97.7803 33.7959 97.7395 34.4762 97.6578 35.1837H81.8619C81.9708 36.5986 82.4197 37.6871 83.2089 38.449C84.0252 39.1837 85.0184 39.551 86.1885 39.551C87.9299 39.551 89.1408 38.8163 89.8211 37.3469H97.2497C96.8687 38.8435 96.1748 40.1905 95.168 41.3878C94.1885 42.585 92.9504 43.5238 91.4538 44.2041C89.9572 44.8844 88.2837 45.2245 86.4334 45.2245C84.2021 45.2245 82.2157 44.7483 80.4742 43.7959C78.7327 42.8435 77.3721 41.483 76.3925 39.7143C75.4129 37.9456 74.9231 35.8776 74.9231 33.5102C74.9231 31.1429 75.3993 29.0748 76.3517 27.3061C77.3313 25.5374 78.6919 24.1769 80.4334 23.2245C82.1748 22.2721 84.1748 21.7959 86.4334 21.7959C88.6374 21.7959 90.5966 22.2585 92.3109 23.1837C94.0252 24.1089 95.3585 25.4286 96.3109 27.1429C97.2905 28.8571 97.7803 30.8571 97.7803 33.1429ZM90.6374 31.3061C90.6374 30.1088 90.2293 29.1565 89.4129 28.449C88.5966 27.7415 87.5762 27.3878 86.3517 27.3878C85.1816 27.3878 84.1885 27.7279 83.3721 28.4082C82.583 29.0884 82.0932 30.0544 81.9027 31.3061H90.6374ZM114.156 38.9796V44.898H110.605C108.075 44.898 106.102 44.2857 104.687 43.0612C103.272 41.8095 102.564 39.7823 102.564 36.9796V27.9184H99.7889V22.1225H102.564V16.5714H109.544V22.1225H114.115V27.9184H109.544V37.0612C109.544 37.7415 109.707 38.2313 110.034 38.5306C110.36 38.8299 110.905 38.9796 111.666 38.9796H114.156ZM125.024 25.9184C125.84 24.6667 126.86 23.6871 128.085 22.9796C129.309 22.2449 130.67 21.8776 132.166 21.8776V29.2653H130.248C128.507 29.2653 127.2 29.6463 126.33 30.4082C125.459 31.1429 125.024 32.449 125.024 34.3265V44.898H118.044V22.1225H125.024V25.9184Z" fill="#1813FF"/>
<path d="M157.247 5.44218H141.497V46.2585H157.247V5.44218Z" fill="#1813FF"/>
<path d="M179.749 15.6463H161.748V46.2585H179.749V15.6463Z" fill="#1813FF"/>
<path d="M200 27.8912H184.249V46.2585H200V27.8912Z" fill="#1813FF"/>
</g>
<defs>
<clipPath id="clip0_144_11">
<rect width="200" height="55.7823" fill="white"/>
</clipPath>
</defs>
</svg>
