<svg width="147" height="41" viewBox="0 0 147 41" fill="none" xmlns="http://www.w3.org/2000/svg">
<path d="M6.99 16.05V20.31H13.86V24.27H6.99V28.89H14.76V33H1.86V11.94H14.76V16.05H6.99ZM27.9905 33L24.7805 28.35L22.0805 33H16.5305L22.0505 24.45L16.3805 16.26H22.1405L25.3505 20.88L28.0505 16.26H33.6005L27.9905 24.69L33.7505 33H27.9905ZM40.8572 18.63C41.3572 17.85 42.0472 17.22 42.9272 16.74C43.8072 16.26 44.8372 16.02 46.0172 16.02C47.3972 16.02 48.6472 16.37 49.7672 17.07C50.8872 17.77 51.7672 18.77 52.4072 20.07C53.0672 21.37 53.3972 22.88 53.3972 24.6C53.3972 26.32 53.0672 27.84 52.4072 29.16C51.7672 30.46 50.8872 31.47 49.7672 32.19C48.6472 32.89 47.3972 33.24 46.0172 33.24C44.8572 33.24 43.8272 33 42.9272 32.52C42.0472 32.04 41.3572 31.42 40.8572 30.66V40.98H35.7272V16.26H40.8572V18.63ZM48.1772 24.6C48.1772 23.32 47.8172 22.32 47.0972 21.6C46.3972 20.86 45.5272 20.49 44.4872 20.49C43.4672 20.49 42.5972 20.86 41.8772 21.6C41.1772 22.34 40.8272 23.35 40.8272 24.63C40.8272 25.91 41.1772 26.92 41.8772 27.66C42.5972 28.4 43.4672 28.77 44.4872 28.77C45.5072 28.77 46.3772 28.4 47.0972 27.66C47.8172 26.9 48.1772 25.88 48.1772 24.6ZM71.8685 24.36C71.8685 24.84 71.8385 25.34 71.7785 25.86H60.1685C60.2485 26.9 60.5785 27.7 61.1585 28.26C61.7585 28.8 62.4885 29.07 63.3485 29.07C64.6285 29.07 65.5185 28.53 66.0185 27.45H71.4785C71.1985 28.55 70.6885 29.54 69.9485 30.42C69.2285 31.3 68.3185 31.99 67.2185 32.49C66.1185 32.99 64.8885 33.24 63.5285 33.24C61.8885 33.24 60.4285 32.89 59.1485 32.19C57.8685 31.49 56.8685 30.49 56.1485 29.19C55.4285 27.89 55.0685 26.37 55.0685 24.63C55.0685 22.89 55.4185 21.37 56.1185 20.07C56.8385 18.77 57.8385 17.77 59.1185 17.07C60.3985 16.37 61.8685 16.02 63.5285 16.02C65.1485 16.02 66.5885 16.36 67.8485 17.04C69.1085 17.72 70.0885 18.69 70.7885 19.95C71.5085 21.21 71.8685 22.68 71.8685 24.36ZM66.6185 23.01C66.6185 22.13 66.3185 21.43 65.7185 20.91C65.1185 20.39 64.3685 20.13 63.4685 20.13C62.6085 20.13 61.8785 20.38 61.2785 20.88C60.6985 21.38 60.3385 22.09 60.1985 23.01H66.6185ZM83.9048 28.65V33H81.2948C79.4348 33 77.9848 32.55 76.9448 31.65C75.9048 30.73 75.3848 29.24 75.3848 27.18V20.52H73.3448V16.26H75.3848V12.18H80.5148V16.26H83.8748V20.52H80.5148V27.24C80.5148 27.74 80.6348 28.1 80.8748 28.32C81.1148 28.54 81.5148 28.65 82.0748 28.65H83.9048ZM91.8923 19.05C92.4923 18.13 93.2423 17.41 94.1423 16.89C95.0423 16.35 96.0423 16.08 97.1423 16.08V21.51H95.7323C94.4523 21.51 93.4923 21.79 92.8523 22.35C92.2123 22.89 91.8923 23.85 91.8923 25.23V33H86.7623V16.26H91.8923V19.05Z" fill="#1813FF"/>
<rect x="104" y="4" width="11.5769" height="30" fill="#1813FF"/>
<rect x="118.885" y="11.5" width="13.2308" height="22.5" fill="#1813FF"/>
<rect x="135.423" y="20.5" width="11.5769" height="13.5" fill="#1813FF"/>
</svg>
