<svg width="25" height="23" viewBox="0 0 25 23" fill="none" xmlns="http://www.w3.org/2000/svg">
<path d="M2.92969 3.59375H22.0703C22.1777 3.59375 22.2656 3.67461 22.2656 3.77344V5.21094C22.2656 5.30977 22.1777 5.39062 22.0703 5.39062H2.92969C2.82227 5.39062 2.73438 5.30977 2.73438 5.21094V3.77344C2.73438 3.67461 2.82227 3.59375 2.92969 3.59375ZM2.92969 17.6094H22.0703C22.1777 17.6094 22.2656 17.6902 22.2656 17.7891V19.2266C22.2656 19.3254 22.1777 19.4062 22.0703 19.4062H2.92969C2.82227 19.4062 2.73438 19.3254 2.73438 19.2266V17.7891C2.73438 17.6902 2.82227 17.6094 2.92969 17.6094ZM2.92969 10.6016H22.0703C22.1777 10.6016 22.2656 10.6824 22.2656 10.7812V12.2188C22.2656 12.3176 22.1777 12.3984 22.0703 12.3984H2.92969C2.82227 12.3984 2.73438 12.3176 2.73438 12.2188V10.7812C2.73438 10.6824 2.82227 10.6016 2.92969 10.6016Z" fill="#696767"/>
</svg>
