<svg width="36" height="36" viewBox="0 0 36 36" fill="none" xmlns="http://www.w3.org/2000/svg">
<path d="M32.51 27.83C31.5457 26.9704 30.7014 25.9849 30 24.9C29.2342 23.4026 28.7752 21.7673 28.65 20.09V15.15C28.6566 12.5156 27.701 9.9695 25.9627 7.99C24.2244 6.0105 21.8231 4.73388 19.21 4.40002V3.11002C19.21 2.75596 19.0693 2.4164 18.819 2.16604C18.5686 1.91568 18.2291 1.77502 17.875 1.77502C17.5209 1.77502 17.1814 1.91568 16.931 2.16604C16.6806 2.4164 16.54 2.75596 16.54 3.11002V4.42002C13.9502 4.77795 11.578 6.06228 9.86252 8.03513C8.14707 10.008 7.20472 12.5357 7.20999 15.15V20.09C7.08474 21.7673 6.62577 23.4026 5.85999 24.9C5.17087 25.9824 4.34018 26.9678 3.38999 27.83C3.28332 27.9237 3.19783 28.0391 3.13921 28.1684C3.08058 28.2977 3.05017 28.438 3.04999 28.58V29.94C3.04999 30.2052 3.15534 30.4596 3.34288 30.6471C3.53042 30.8347 3.78477 30.94 4.04999 30.94H31.85C32.1152 30.94 32.3696 30.8347 32.5571 30.6471C32.7446 30.4596 32.85 30.2052 32.85 29.94V28.58C32.8498 28.438 32.8194 28.2977 32.7608 28.1684C32.7021 28.0391 32.6167 27.9237 32.51 27.83ZM5.12999 28.94C6.0604 28.0412 6.87959 27.034 7.56999 25.94C8.5346 24.1315 9.09742 22.136 9.21999 20.09V15.15C9.18033 13.9781 9.37691 12.8101 9.79803 11.7157C10.2192 10.6213 10.8562 9.62281 11.6712 8.77973C12.4863 7.93664 13.4626 7.26619 14.5422 6.8083C15.6217 6.3504 16.7824 6.11443 17.955 6.11443C19.1276 6.11443 20.2883 6.3504 21.3678 6.8083C22.4473 7.26619 23.4237 7.93664 24.2387 8.77973C25.0538 9.62281 25.6908 10.6213 26.1119 11.7157C26.5331 12.8101 26.7296 13.9781 26.69 15.15V20.09C26.8126 22.136 27.3754 24.1315 28.34 25.94C29.0304 27.034 29.8496 28.0412 30.78 28.94H5.12999Z" fill="black"/>
<path d="M18 34.28C18.6299 34.2655 19.2345 34.0287 19.7066 33.6114C20.1788 33.1942 20.4881 32.6234 20.58 32H15.32C15.4145 32.6403 15.7383 33.2245 16.2313 33.6439C16.7243 34.0633 17.3528 34.2894 18 34.28V34.28Z" fill="black"/>
</svg>
