<svg width="87" height="100" viewBox="0 0 87 100" fill="none" xmlns="http://www.w3.org/2000/svg">
<path d="M41.2117 50.0195C40.0789 46.8945 40.1016 40.8594 40.7586 40.8594C42.6617 40.8594 42.4805 48.0664 41.2117 50.0195ZM40.8266 59.2383C39.082 63.1836 36.907 67.6953 34.3922 71.4844C38.5383 70.1172 43.2281 68.125 48.643 67.207C45.7656 65.332 43.0016 62.6367 40.8266 59.2383ZM19.507 83.6133C19.507 83.7695 22.4977 82.5586 27.4141 75.7617C25.8961 76.9922 20.8211 80.5469 19.507 83.6133ZM56.1875 31.25H87V95.3125C87 97.9102 84.5758 100 81.5625 100H5.4375C2.42422 100 0 97.9102 0 95.3125V4.6875C0 2.08984 2.42422 0 5.4375 0H50.75V26.5625C50.75 29.1406 53.1969 31.25 56.1875 31.25ZM54.375 64.8047C49.8438 62.4219 46.8305 59.1406 44.7008 54.2969C45.7203 50.6836 47.3289 45.1953 46.1055 41.7578C45.0406 36.0156 36.4992 36.582 35.2758 40.4297C34.143 44.0039 35.1852 49.043 37.1109 55.4688C34.4828 60.8594 30.6086 68.0859 27.8672 72.2266C27.8445 72.2266 27.8445 72.2461 27.8219 72.2461C21.682 74.9609 11.1469 80.9375 15.4742 85.5273C16.743 86.875 19.0992 87.4805 20.3453 87.4805C24.4008 87.4805 28.4336 83.9648 34.1883 75.4102C40.0336 73.75 46.4453 71.6797 52.0867 70.8789C57.0031 73.1836 62.7578 74.6875 66.5867 74.6875C73.2023 74.6875 73.6555 68.4375 71.05 66.2109C67.9008 63.5547 58.7477 64.3164 54.375 64.8047V64.8047ZM85.4141 20.5078L63.2109 1.36719C62.1914 0.488281 60.8094 0 59.3594 0H58V25H87V23.8086C87 22.5781 86.4336 21.3867 85.4141 20.5078ZM68.6258 70.3711C69.5547 69.8437 68.0594 68.0469 58.9289 68.6133C67.3344 71.6992 68.6258 70.3711 68.6258 70.3711Z" fill="#2C76DC"/>
</svg>
