<svg width="47" height="42" viewBox="0 0 47 42" fill="none" xmlns="http://www.w3.org/2000/svg">
<path d="M23.5 9C21.8621 9 20.261 9.43987 18.8992 10.264C17.5373 11.0881 16.4759 12.2594 15.8491 13.6299C15.2223 15.0003 15.0583 16.5083 15.3779 17.9632C15.6974 19.418 16.4861 20.7544 17.6443 21.8033C18.8024 22.8522 20.278 23.5665 21.8844 23.8559C23.4908 24.1453 25.1559 23.9968 26.6691 23.4291C28.1823 22.8614 29.4757 21.9001 30.3856 20.6668C31.2956 19.4334 31.7813 17.9834 31.7813 16.5C31.7813 14.5109 30.9088 12.6032 29.3557 11.1967C27.8027 9.79018 25.6963 9 23.5 9Z" fill="#8F8B8B"/>
<path d="M23.5 0C18.914 0 14.4309 1.23163 10.6177 3.53914C6.80456 5.84665 3.83256 9.1264 2.07755 12.9636C0.322547 16.8009 -0.136643 21.0233 0.758052 25.0969C1.65275 29.1705 3.86114 32.9123 7.10397 35.8492C10.3468 38.7861 14.4784 40.7862 18.9764 41.5965C23.4743 42.4068 28.1365 41.9909 32.3735 40.4015C36.6104 38.812 40.2318 36.1204 42.7797 32.667C45.3276 29.2135 46.6875 25.1534 46.6875 21C46.6805 15.4324 44.2353 10.0947 39.8883 6.15777C35.5413 2.22089 29.6476 0.00635208 23.5 0V0ZM36.7368 34.389C36.7037 32.4215 35.8186 30.5445 34.2721 29.1624C32.7256 27.7803 30.6415 27.0037 28.4688 27H18.5313C16.3586 27.0037 14.2744 27.7803 12.7279 29.1624C11.1814 30.5445 10.2963 32.4215 10.2633 34.389C7.25976 31.9601 5.14169 28.7623 4.18952 25.219C3.23735 21.6757 3.49599 17.954 4.93119 14.5468C6.3664 11.1396 8.91047 8.2075 12.2265 6.13885C15.5426 4.0702 19.4742 2.96254 23.5008 2.96254C27.5274 2.96254 31.4591 4.0702 34.7751 6.13885C38.0912 8.2075 40.6353 11.1396 42.0705 14.5468C43.5057 17.954 43.7643 21.6757 42.8122 25.219C41.86 28.7623 39.7419 31.9601 36.7384 34.389H36.7368Z" fill="#8F8B8B"/>
</svg>
