<svg width="20" height="20" viewBox="0 0 20 20" fill="none" xmlns="http://www.w3.org/2000/svg">
<path d="M10 4.40002C3.439 4.40002 0 9.23202 0 10C0 10.766 3.439 15.6 10 15.6C16.56 15.6 20 10.766 20 10C20 9.23202 16.56 4.40002 10 4.40002ZM10 14.307C7.545 14.307 5.555 12.379 5.555 10C5.555 7.62102 7.545 5.69102 10 5.69102C12.455 5.69102 14.444 7.62102 14.444 10C14.444 12.379 12.455 14.307 10 14.307ZM10 10C9.593 9.55302 10.663 7.84602 10 7.84602C8.772 7.84602 7.777 8.81102 7.777 10C7.777 11.189 8.772 12.154 10 12.154C11.227 12.154 12.223 11.189 12.223 10C12.223 9.45302 10.346 10.379 10 10Z" fill="#696767"/>
</svg>
